<svg xmlns="http://www.w3.org/2000/svg" viewBox="0 0 251.5 145.1"><defs><style>.cls-1{fill:#eff8fd;}.cls-2{isolation:isolate;}.cls-3{fill:#00a8e0;}.cls-4{fill:#fff;}</style></defs><title>crucero-gana</title><g id="Capa_2" data-name="Capa 2"><g id="Capa_1-2" data-name="Capa 1"><g id="Group-5"><path id="Fill-3" class="cls-1" d="M215,70.7c-1.5-1.9-3-3.7-5.2-1.6-.2-2.2-1.5-3.4-3.6-4s-6.2,1.8-5,5a4.2,4.2,0,0,0-3.4-.7c-.9.4-1.2.7-1.8,2.2-4.3-2.1-7,.9-9.3,1.7h64.8a20,20,0,0,0-10.4-1.6c2.2-3.5,1.7-8.3-1.6-10.7a5.69,5.69,0,0,0-7.4,1,6.26,6.26,0,0,0-1.9-6.1,7.27,7.27,0,0,0-5.5-1.5,7.1,7.1,0,0,0-6.1,5.1c-1.3,3.8,1.1,9.9,1.1,9.9s-3.5-2.6-4.7,1.3"/></g><g id="Group-5-Copy"><path id="Fill-3-2" data-name="Fill-3" class="cls-1" d="M41.6,70.7c1.5-1.9,3-3.7,5.2-1.6.2-2.2,1.5-3.4,3.6-4s6.2,1.8,4.9,5.1a4.2,4.2,0,0,1,3.4-.7c1,.3,1.3.6,1.9,2.1,4.3-2.1,7,.9,9.3,1.7H5.1a20,20,0,0,1,10.4-1.6c-2.2-3.5-1.7-8.3,1.6-10.7a5.69,5.69,0,0,1,7.4,1,6.26,6.26,0,0,1,1.9-6.1A7.62,7.62,0,0,1,32,54.4a7.1,7.1,0,0,1,6.1,5.1c1.3,3.8-1.1,9.9-1.1,9.9s3.4-2.6,4.6,1.3"/></g><g class="cls-2"><path class="cls-3" d="M81.4,35a14.06,14.06,0,0,1-6.2,4.1,25.58,25.58,0,0,1-8.9,1.5,18.44,18.44,0,0,1-9-2.2,15.12,15.12,0,0,1-6-6.5,22.33,22.33,0,0,1-2.1-10V19.2a25.23,25.23,0,0,1,2-10.3A13.89,13.89,0,0,1,57,2.3,16.71,16.71,0,0,1,65.8,0c4.7,0,8.4,1.2,11,3.4s4.2,5.5,4.7,9.7H73.6a8.73,8.73,0,0,0-2.4-5,7.26,7.26,0,0,0-5.1-1.6,7.25,7.25,0,0,0-6.3,3.1c-1.5,2.1-2.1,5.1-2.2,9.3v2.5c0,4.1.8,7.3,2.4,9.4a8.12,8.12,0,0,0,6.9,3.1c3.1,0,5.2-.6,6.5-1.9V25.2H66v-6H81.6C81.4,19.1,81.4,35,81.4,35Z"/><path class="cls-3" d="M110.3,31.8H96l-2.7,8.1H84.6L99.3.4h7.5l14.8,39.5H113ZM98.2,25.2h9.9l-5-14.8Z"/><path class="cls-3" d="M157.5,40h-8.1L133.5,14V40h-8.1V.5h8.1l15.9,26.1V.5h8.1Z"/><path class="cls-3" d="M187.4,31.8H173.1l-2.7,8.1h-8.7L176.4.4h7.5l14.8,39.5H190Zm-12-6.6h9.9l-5-14.8Z"/></g><g class="cls-2"><path class="cls-4" d="M117.3,142.1a3.33,3.33,0,0,1-1.1,2.2,3.65,3.65,0,0,1-2.4.8,2.91,2.91,0,0,1-2.5-1.2,5,5,0,0,1-.9-3.1V140a5.45,5.45,0,0,1,.5-2.2,3.64,3.64,0,0,1,1.2-1.5,3.83,3.83,0,0,1,1.9-.5,3.09,3.09,0,0,1,2.3.8,3.25,3.25,0,0,1,1,2.2H116a2.13,2.13,0,0,0-.7-1.5,2.07,2.07,0,0,0-1.5-.5,2.2,2.2,0,0,0-1.8.8,3.44,3.44,0,0,0-.6,2.4v.8a3.71,3.71,0,0,0,.6,2.3,2.14,2.14,0,0,0,1.7.8,2.07,2.07,0,0,0,1.5-.5,2.13,2.13,0,0,0,.7-1.5l1.4.2Z"/><path class="cls-4" d="M125.8,140.8a5.93,5.93,0,0,1-.5,2.3,3.09,3.09,0,0,1-1.2,1.5,3.83,3.83,0,0,1-1.9.5,3.45,3.45,0,0,1-1.8-.5,3.84,3.84,0,0,1-1.3-1.5,5.09,5.09,0,0,1-.5-2.2v-.8a5.93,5.93,0,0,1,.5-2.3,2.78,2.78,0,0,1,1.3-1.5,3,3,0,0,1,1.9-.5,3.83,3.83,0,0,1,1.9.5,3,3,0,0,1,1.2,1.5,5.93,5.93,0,0,1,.5,2.3l-.1.7Zm-1.3-.6a4.63,4.63,0,0,0-.6-2.5,2.43,2.43,0,0,0-3.6,0,4,4,0,0,0-.7,2.4v.7a4.87,4.87,0,0,0,.6,2.5,2.14,2.14,0,0,0,1.8.9,2.2,2.2,0,0,0,1.8-.8,4,4,0,0,0,.6-2.4l.1-.8Z"/><path class="cls-4" d="M134.4,145h-1.2l-4.5-6.9V145h-1.2v-9h1.2l4.5,6.9V136h1.2Z"/></g><g class="cls-2"><path class="cls-4" d="M32.3,113.2c-.3,4.2-1.8,7.6-4.7,10s-6.6,3.7-11.2,3.7c-5.1,0-9-1.7-12-5.1S0,113.7,0,107.8v-2.4a24.11,24.11,0,0,1,2-10,14.62,14.62,0,0,1,5.8-6.7,16.61,16.61,0,0,1,8.7-2.3c4.5,0,8.2,1.2,11,3.7a15,15,0,0,1,4.8,10.3H24.1c-.2-2.5-.9-4.4-2.1-5.5s-3.1-1.7-5.6-1.7a7,7,0,0,0-6.1,2.9c-1.4,1.9-2.1,5-2.1,9v3c0,4.3.6,7.4,1.9,9.4a6.72,6.72,0,0,0,6.1,3c2.5,0,4.4-.5,5.6-1.7a8.15,8.15,0,0,0,2.1-5.4h8.2v-.2Z"/><path class="cls-4" d="M52.2,111.9H45.7v14.5H37.6V86.9H52.2c4.7,0,8.3,1.1,10.8,3.1a10.85,10.85,0,0,1,3.8,8.8,11.74,11.74,0,0,1-1.8,6.7,12.16,12.16,0,0,1-5.3,4.3L68.2,126v.4H59.5Zm-6.5-6.6h6.6a7.08,7.08,0,0,0,4.8-1.5,5.44,5.44,0,0,0,1.7-4.3,6,6,0,0,0-1.6-4.4c-1.1-1.1-2.7-1.6-4.9-1.6H45.8C45.7,93.5,45.7,105.3,45.7,105.3Z"/><path class="cls-4" d="M103,86.9v26a13.63,13.63,0,0,1-4.1,10.3c-2.7,2.5-6.4,3.8-11.1,3.8s-8.3-1.2-11-3.7a13,13,0,0,1-4.1-10V87h8.1v26.1c0,2.6.6,4.4,1.8,5.7a7.06,7.06,0,0,0,5.1,1.8c4.6,0,6.9-2.4,7-7.2V87.1l8.3-.2Z"/><path class="cls-4" d="M140.6,113.2c-.3,4.2-1.8,7.6-4.7,10s-6.6,3.7-11.2,3.7c-5.1,0-9-1.7-12-5.1s-4.4-8.1-4.4-14v-2.4a24.11,24.11,0,0,1,2-10,14.62,14.62,0,0,1,5.8-6.7,16.61,16.61,0,0,1,8.7-2.3c4.5,0,8.2,1.2,11,3.7a15,15,0,0,1,4.8,10.3h-8.1c-.2-2.5-.9-4.4-2.1-5.5s-3.1-1.7-5.6-1.7a7,7,0,0,0-6.1,2.9c-1.4,1.9-2.1,5-2.1,9v3c0,4.3.6,7.4,1.9,9.4a6.72,6.72,0,0,0,6.1,3c2.5,0,4.4-.5,5.6-1.7a8.15,8.15,0,0,0,2.1-5.4h8.1v-.2Z"/><path class="cls-4" d="M169.8,109.3H154.2v10.6h18.3v6.5H146V86.9h26.5v6.6H154.2v9.4h15.6Z"/><path class="cls-4" d="M191.9,111.9h-6.5v14.5h-8.1V86.9h14.6c4.7,0,8.3,1.1,10.8,3.1a10.85,10.85,0,0,1,3.8,8.8,11.74,11.74,0,0,1-1.8,6.7,12.16,12.16,0,0,1-5.3,4.3l8.5,16.2v.4h-8.7Zm-6.5-6.6H192a7.08,7.08,0,0,0,4.8-1.5,5.31,5.31,0,0,0,1.7-4.3,6,6,0,0,0-1.6-4.4c-1.1-1.1-2.7-1.6-4.9-1.6h-6.5l-.1,11.8Z"/><path class="cls-4" d="M245.2,107.5a23.22,23.22,0,0,1-2.1,10.2,15.49,15.49,0,0,1-5.9,6.7,16.13,16.13,0,0,1-8.8,2.4,15.79,15.79,0,0,1-8.7-2.4,16.3,16.3,0,0,1-6-6.7,22.94,22.94,0,0,1-2.1-10v-1.9a24,24,0,0,1,2.1-10.3,15.35,15.35,0,0,1,6-6.8,16,16,0,0,1,8.7-2.4,15.79,15.79,0,0,1,8.7,2.4,16.65,16.65,0,0,1,6,6.8,24,24,0,0,1,2.1,10.3v1.7Zm-8.3-1.7c0-4.1-.8-7.3-2.2-9.4a7.4,7.4,0,0,0-6.4-3.2,7.22,7.22,0,0,0-6.3,3.2c-1.5,2.1-2.2,5.2-2.2,9.4v1.9c0,4.1.8,7.1,2.2,9.4a7.34,7.34,0,0,0,6.4,3.4,7.22,7.22,0,0,0,6.3-3.2c1.5-2.1,2.2-5.3,2.2-9.4v-2.1Z"/></g><g class="cls-2"><path class="cls-4" d="M81.5,58.4v9.7a5.14,5.14,0,0,1-.6,2.5,4,4,0,0,1-1.8,1.6,5.5,5.5,0,0,1-2.6.5,5.22,5.22,0,0,1-3.6-1.2,4.29,4.29,0,0,1-1.4-3.4V58.3h1.2v9.6a3.81,3.81,0,1,0,7.6,0V58.2l1.2.2Z"/><path class="cls-4" d="M95.5,72.6H94.3L86.1,60.4V72.6H84.9V58.4h1.2l8.2,12.2V58.4h1.2Z"/></g><path class="cls-4" d="M108.8,70.8l.1.3.1-.3,4.4-12.4h1.3l-5.3,14.1h-1.1L103,58.4h1.3Z"/><path class="cls-4" d="M118.2,72.6H117V58.5h1.2Z"/><path class="cls-4" d="M129.8,68.6h-6.4l-1.5,4h-1.3l5.3-14.1H127l5.3,14.1h-1.2Zm-6-1h5.7l-2.8-7.7Z"/><path class="cls-4" d="M140.9,58.4h1.2v9.9a4.38,4.38,0,0,1-1.2,3.2,4.14,4.14,0,0,1-3.1,1.2,4.59,4.59,0,0,1-3.2-1.1,4.08,4.08,0,0,1-1.1-3h1.2a2.8,2.8,0,0,0,3.1,3.1,2.94,2.94,0,0,0,2.2-.9,3.24,3.24,0,0,0,.9-2.4v-10Z"/><path class="cls-4" d="M153.4,65.8h-6.6v5.8h7.6v1h-8.8V58.5h8.7v1h-7.5v5.3h6.6Z"/><path class="cls-4" d="M169.5,65.8h-6.6v5.8h7.6v1h-8.8V58.5h8.7v1h-7.5v5.3h6.6Z"/><path class="cls-4" d="M183.5,72.6h-1.2l-8.1-12.1V72.6H173V58.5h1.2l8.1,12.1V58.5h1.2Z"/></g></g></svg>