<svg xmlns="http://www.w3.org/2000/svg" viewBox="0 0 251.5 243.2"><defs><style>.cls-1{fill:#eff8fd;}.cls-2{fill:#fefefe;}.cls-3{isolation:isolate;}.cls-4{fill:#00a8e0;}.cls-5{fill:#fff;}</style></defs><title>gana-crucero</title><g id="Capa_2" data-name="Capa 2"><g id="Capa_1-2" data-name="Capa 1"><g id="Desk"><g id="Desktop-HD"><g id="logo"><g id="Group-5"><path id="Fill-3" class="cls-1" d="M215,130.1c-1.5-1.9-3-3.7-5.2-1.6-.2-2.2-1.5-3.4-3.6-4s-6.2,1.8-5,5a4.2,4.2,0,0,0-3.4-.7c-.9.4-1.2.7-1.8,2.2-4.3-2.1-7,.9-9.3,1.7h64.8a20,20,0,0,0-10.4-1.6c2.2-3.5,1.7-8.3-1.6-10.7a5.69,5.69,0,0,0-7.4,1,6.26,6.26,0,0,0-1.9-6.1,7.27,7.27,0,0,0-5.5-1.5,7.1,7.1,0,0,0-6.1,5.1c-1.3,3.8,1.1,9.9,1.1,9.9s-3.5-2.6-4.7,1.3"/></g><g id="Group-5-Copy"><path id="Fill-3-2" data-name="Fill-3" class="cls-1" d="M41.6,130.1c1.5-1.9,3-3.7,5.2-1.6.2-2.2,1.5-3.4,3.6-4s6.2,1.8,4.9,5.1a4.2,4.2,0,0,1,3.4-.7c1,.3,1.3.6,1.9,2.1,4.3-2.1,7,.9,9.3,1.7H5.1a20,20,0,0,1,10.4-1.6c-2.2-3.5-1.7-8.3,1.6-10.7a5.69,5.69,0,0,1,7.4,1,6.26,6.26,0,0,1,1.9-6.1,7.62,7.62,0,0,1,5.6-1.5,7.1,7.1,0,0,1,6.1,5.1c1.3,3.8-1.1,9.9-1.1,9.9s3.4-2.6,4.6,1.3"/></g><g id="logopremier"><path id="Fill-1" class="cls-2" d="M161.6,207.3a2.28,2.28,0,0,0-2.2,1.6H154a2.38,2.38,0,0,0-2.2-1.6,2.4,2.4,0,1,0,0,4.8,2.51,2.51,0,0,0,2.3-1.6h5.4a2.42,2.42,0,0,0,4.7-.8,2.62,2.62,0,0,0-2.6-2.4"/><path id="Fill-3-3" data-name="Fill-3" class="cls-2" d="M65.2,222.8c-1.2,0-2.3-.5-2.3-1.8v-6.9H59.7V221c0,2.6,2.2,4.3,5.5,4.3s5.5-1.7,5.5-4.3v-6.9H67.5V221c0,1.1-.9,1.8-2.3,1.8"/><path id="Fill-5" class="cls-2" d="M82.1,222.2a1.69,1.69,0,0,1-1.2.4H77.2v-2.1h3.7a1.52,1.52,0,0,1,1.2.4,1.08,1.08,0,0,1,.3.7c-.1.3-.3.5-.3.6m-1.6-5.8a1.37,1.37,0,0,1,1.1.4.55.55,0,0,1,.2.5,1.07,1.07,0,0,1-.2.6c-.3.3-.6.3-1.1.3H77.2v-1.8m6.4,2.5h0a2.9,2.9,0,0,0,1.5-2.2,2.2,2.2,0,0,0-.6-1.5A4.49,4.49,0,0,0,81,214H74v10.9h7.2c1.8,0,2.7-.3,3.5-1.1a3.19,3.19,0,0,0,1-2.3,3,3,0,0,0-2.1-2.6"/><path id="Fill-7" class="cls-2" d="M100.5,218.4a1.33,1.33,0,0,1-.9.3H96.1v-2.1h3.5a1.43,1.43,0,0,1,1,.4,1.14,1.14,0,0,1,.3.8,6.13,6.13,0,0,1-.4.6m2.6-3a4.87,4.87,0,0,0-3.8-1.3H92.8V225H96v-3.8h3.3A5.31,5.31,0,0,0,103,220a3.45,3.45,0,0,0,1-2.3,3.17,3.17,0,0,0-.9-2.3"/><polygon id="Fill-9" class="cls-2" points="139.7 219.5 139.7 219.5 136.2 214 133.3 214 133.3 225 136.3 225 136.3 219.8 136.5 219.8 136.5 219.8 139.1 223.7 140.3 223.7 142.8 219.8 142.9 219.8 142.9 225 146.2 225 146.2 214 143.3 214 139.8 219.5 139.7 219.5"/><polygon id="Fill-11" class="cls-2" points="149.5 225 152.8 225 152.8 214 149.5 214 149.5 225"/><path id="Fill-13" class="cls-2" d="M53.1,222.5V214H50v9.1s-.2,1.8,1.4,1.8h6.8v-2.5l-5.1.1Z"/><path id="Fill-14" class="cls-2" d="M159.1,222.6v-1.9h5.8v-2.3h-5.8v-1.8h6.8V214H156v9.2s0,1.8,1.5,1.8h8.8v-2.4Z"/><path id="Fill-15" class="cls-2" d="M123.2,222.6v-1.9H129v-2.3h-5.8v-1.8H130V214h-9.9v9.2s0,1.8,1.5,1.8h8.8v-2.4Z"/><path id="Fill-16" class="cls-2" d="M47.1,222.3c-1-.9-2.6,0-2.6,0a4.55,4.55,0,0,1-2.1.5,3.43,3.43,0,0,1-3.7-3.3,3.35,3.35,0,0,1,3.6-3.3,6,6,0,0,1,2.4.6,1.6,1.6,0,0,0,2.1-.5l.8-.8a10,10,0,0,0-5.8-1.8,6,6,0,0,0-6.3,5.8c0,3.3,2.7,5.8,6.4,5.8a9.7,9.7,0,0,0,6-2.1Z"/><path id="Fill-17" class="cls-2" d="M113.7,218.4a1.22,1.22,0,0,1-.9.3h-3.5v-2.1h3.5a1.43,1.43,0,0,1,1,.4,1.08,1.08,0,0,1,.3.7.87.87,0,0,1-.4.7Zm1.6,2.2a3.45,3.45,0,0,0,2.1-3.1,3.26,3.26,0,0,0-1-2.3c-.8-.8-1.8-1.2-3.7-1.2h-6.5v11h3.3v-3.8h2.6l1.6,2.8a2.22,2.22,0,0,0,1.8,1H118Z"/><path id="Fill-18" class="cls-2" d="M176.8,218.4a1.22,1.22,0,0,1-.9.3h-3.5v-2.1h3.5a1.43,1.43,0,0,1,1,.4,1.08,1.08,0,0,1,.3.7,2.51,2.51,0,0,1-.4.7Zm1.4,2.2a3.45,3.45,0,0,0,2.1-3.1,3.26,3.26,0,0,0-1-2.3c-.8-.8-1.8-1.2-3.7-1.2h-6.5v11h3.3v-3.8H175l1.6,2.8a2.22,2.22,0,0,0,1.8,1h2.5Z"/><path id="Fill-19" class="cls-2" d="M206.9,217.3a.48.48,0,0,0-.7-.2,8.65,8.65,0,0,0-1,.7c-.6-.3-1.1-.5-1.5-.7a1.88,1.88,0,0,0-.8-.2,1.45,1.45,0,0,0-1.5,1.4v4.9a1.74,1.74,0,0,0,1.7,1.6h2.5a1.21,1.21,0,0,0,1.3-1.2v-2.1c0-.2,0-.5.3-.5s.5-.1.6-.1a.37.37,0,0,0,.2-.5,9.47,9.47,0,0,0-1.1-3.1"/><path id="Fill-20" class="cls-2" d="M209.8,217a3.12,3.12,0,0,0-2.9-3.1,5.35,5.35,0,0,0-2.8.7H204a4,4,0,0,0-1.6-.9c-.1,0-.1-.2,0-.2a10.52,10.52,0,0,1,3.3.1c.2,0,.2-.1.2-.2a.22.22,0,0,0-.2-.2,1.6,1.6,0,0,0-.9-.7,21.83,21.83,0,0,0-4.9-.6,25.77,25.77,0,0,0-4.6.5.44.44,0,0,0-.3.1c-.2,0-.2.2-.1.2s.2.2.2.2a.19.19,0,0,1,0,.3l-3.8,3.1h2.5a.32.32,0,0,1,.3.3.45.45,0,0,1-.3.3h-3.3l-1,.9h4.3a.3.3,0,1,1,0,.6h-5.1l-1,.9h8.7a.3.3,0,1,1,0,.6h-8.7v.9h8.7c.2,0,.3.2.3.4a.32.32,0,0,1-.3.3h-8.6v.9h11.3a.3.3,0,0,1,0,.6H191v.9h8.3a.3.3,0,1,1,0,.6H191v.9h9.5a4.29,4.29,0,0,0,.4-1.7v-6.1a1.43,1.43,0,0,1,1.2-1.5h.1a12.54,12.54,0,0,1,7.4.6c.1.6.2.4.2.3"/><path id="Fill-21" class="cls-2" d="M193.9,229h1.9a4.74,4.74,0,0,0,2.8-.9h-4.8v.9Z"/><path id="Fill-22" class="cls-2" d="M193.9,227.4h5.5a5.5,5.5,0,0,0,.7-.9h-6.2Z"/><path id="Fill-23" class="cls-2" d="M193.2,228.5v-.2h.1c.1,0,.1,0,.1.1s-.2.1-.2.1Zm.2-.1a.22.22,0,0,0-.2-.2H193v.5h.1v-.2h.1l.1.2h.1v-.3c-.1.2,0,.1,0,0Z"/><path id="Fill-24" class="cls-2" d="M193.2,228.8a.32.32,0,0,1-.3-.3.45.45,0,0,1,.3-.3.32.32,0,0,1,.3.3.27.27,0,0,1-.3.3m0-.6a.4.4,0,1,0,.4.4c-.1-.2-.2-.4-.4-.4"/></g><g class="cls-3"><path class="cls-4" d="M81.4,94.4a14.06,14.06,0,0,1-6.2,4.1,25.58,25.58,0,0,1-8.9,1.5,18.44,18.44,0,0,1-9-2.2,15.12,15.12,0,0,1-6-6.5,22.33,22.33,0,0,1-2.1-10V78.6a25.23,25.23,0,0,1,2-10.3A13.89,13.89,0,0,1,57,61.7a16.71,16.71,0,0,1,8.8-2.3c4.7,0,8.4,1.2,11,3.4s4.2,5.5,4.7,9.7H73.6a8.73,8.73,0,0,0-2.4-5,7.26,7.26,0,0,0-5.1-1.6A7.25,7.25,0,0,0,59.8,69c-1.5,2.1-2.1,5.1-2.2,9.3v2.5c0,4.1.8,7.3,2.4,9.4a8.12,8.12,0,0,0,6.9,3.1c3.1,0,5.2-.6,6.5-1.9V84.6H66v-6H81.6C81.4,78.5,81.4,94.4,81.4,94.4Z"/><path class="cls-4" d="M110.3,91.2H96l-2.7,8.1H84.6L99.3,59.8h7.5l14.8,39.5H113ZM98.2,84.6h9.9l-5-14.8Z"/><path class="cls-4" d="M157.5,99.4h-8.1l-15.9-26v26h-8.1V59.9h8.1L149.4,86V59.9h8.1Z"/><path class="cls-4" d="M187.4,91.2H173.1l-2.7,8.1h-8.7l14.7-39.5h7.5l14.8,39.5H190Zm-12-6.6h9.9l-5-14.8Z"/></g><g class="cls-3"><path class="cls-5" d="M117.3,201.5a3.33,3.33,0,0,1-1.1,2.2,3.65,3.65,0,0,1-2.4.8,2.91,2.91,0,0,1-2.5-1.2,5,5,0,0,1-.9-3.1v-.8a5.45,5.45,0,0,1,.5-2.2,3.64,3.64,0,0,1,1.2-1.5,3.83,3.83,0,0,1,1.9-.5,3.09,3.09,0,0,1,2.3.8,3.25,3.25,0,0,1,1,2.2H116a2.13,2.13,0,0,0-.7-1.5,2.07,2.07,0,0,0-1.5-.5,2.2,2.2,0,0,0-1.8.8,3.44,3.44,0,0,0-.6,2.4v.8a3.71,3.71,0,0,0,.6,2.3,2.14,2.14,0,0,0,1.7.8,2.07,2.07,0,0,0,1.5-.5,2.13,2.13,0,0,0,.7-1.5l1.4.2Z"/><path class="cls-5" d="M125.8,200.2a5.93,5.93,0,0,1-.5,2.3,3.09,3.09,0,0,1-1.2,1.5,3.83,3.83,0,0,1-1.9.5,3.45,3.45,0,0,1-1.8-.5,3.84,3.84,0,0,1-1.3-1.5,5.09,5.09,0,0,1-.5-2.2v-.8a5.93,5.93,0,0,1,.5-2.3,2.78,2.78,0,0,1,1.3-1.5,3,3,0,0,1,1.9-.5,3.83,3.83,0,0,1,1.9.5,3,3,0,0,1,1.2,1.5,5.93,5.93,0,0,1,.5,2.3l-.1.7Zm-1.3-.6a4.63,4.63,0,0,0-.6-2.5,2.43,2.43,0,0,0-3.6,0,4,4,0,0,0-.7,2.4v.7a4.87,4.87,0,0,0,.6,2.5,2.14,2.14,0,0,0,1.8.9,2.2,2.2,0,0,0,1.8-.8,4,4,0,0,0,.6-2.4l.1-.8Z"/><path class="cls-5" d="M134.4,204.4h-1.2l-4.5-6.9v6.9h-1.2v-9h1.2l4.5,6.9v-6.9h1.2Z"/></g><g id="Group-6"><path id="Fill-1-2" data-name="Fill-1" class="cls-5" d="M135.9,1.5a1.84,1.84,0,0,1,1.9,1.9,1.9,1.9,0,0,1-3.8,0,1.9,1.9,0,0,1,1.9-1.9m3.4,1.9A3.44,3.44,0,0,0,135.9,0a3.37,3.37,0,0,0-3.4,3.4,3.19,3.19,0,0,0,.3,1.4L130,2.4a1,1,0,0,0-1.5.2,1,1,0,0,0,.2,1.5l2.9,2.5L105.1,36.3s-4.8,1.8-6.9-4.3c-.5-1.2,1.6-.5,1.6-.5L99,23.8l-5,5.6s1.3.6,1.5,1.6.2,6.6,4.7,10.1c.5.4.4,4.1.4,4.1h0s3.7-.8,4.1-.3c4.3,3.8,9.8,2.9,10.8,2.9s1.8,1.2,1.8,1.2l4.6-5.9-7.7.5s1.2,1.9-.2,1.7c-6.4-1.1-5.4-6.1-5.4-6.1L133.3,7.9l-.2-.1,2.6,2.2a1,1,0,0,0,1.5-.2,1,1,0,0,0-.2-1.5l-2-1.6a2.35,2.35,0,0,0,.8.2,3.54,3.54,0,0,0,3.5-3.5"/><g id="Group-5-2" data-name="Group-5"><path id="Fill-3-4" data-name="Fill-3" class="cls-5" d="M109,3.2a1.84,1.84,0,0,1,2.2-1.5,1.91,1.91,0,0,1,1.5,2.2,1.84,1.84,0,0,1-2.2,1.5A1.75,1.75,0,0,1,109,3.2M111.5.3A3.32,3.32,0,0,0,107.6,3a3.32,3.32,0,0,0,2.6,3.9,2.2,2.2,0,0,0,1.4-.1l-2.9,2.4a1.11,1.11,0,0,0-.2,1.5,1.21,1.21,0,0,0,1.5.2l3-2.5,24,31.5s.9,5.1-5.4,6c-1.3.2-.2-1.7-.2-1.7l-7.7-.7,4.5,6s.8-1.2,1.8-1.1,6.4,1,10.7-2.8c.5-.5,4,.4,4.1.4h0s-.1-3.8.5-4.1c4.4-3.5,4.7-9.1,4.8-10s1.5-1.5,1.5-1.5l-4.9-5.7-.7,7.7s2.1-.8,1.6.5c-2.2,6.1-6.9,4.2-6.9,4.2L114.8,7l-.2.1L117.2,5a1.11,1.11,0,0,0,.2-1.5,1.11,1.11,0,0,0-1.5-.2l-2.1,1.8c.2-.2.2-.5.3-.8a3.35,3.35,0,0,0-2.6-4"/></g></g><g class="cls-3"><path class="cls-5" d="M32.3,172.6c-.3,4.2-1.8,7.6-4.7,10s-6.6,3.7-11.2,3.7c-5.1,0-9-1.7-12-5.1S0,173.1,0,167.2v-2.4a24.11,24.11,0,0,1,2-10,14.62,14.62,0,0,1,5.8-6.7,16.61,16.61,0,0,1,8.7-2.3c4.5,0,8.2,1.2,11,3.7a15,15,0,0,1,4.8,10.3H24.1c-.2-2.5-.9-4.4-2.1-5.5s-3.1-1.7-5.6-1.7a7,7,0,0,0-6.1,2.9c-1.4,1.9-2.1,5-2.1,9v3c0,4.3.6,7.4,1.9,9.4a6.72,6.72,0,0,0,6.1,3c2.5,0,4.4-.5,5.6-1.7a8.15,8.15,0,0,0,2.1-5.4h8.2v-.2Z"/><path class="cls-5" d="M52.2,171.3H45.7v14.5H37.6V146.3H52.2c4.7,0,8.3,1.1,10.8,3.1a10.85,10.85,0,0,1,3.8,8.8,11.74,11.74,0,0,1-1.8,6.7,12.16,12.16,0,0,1-5.3,4.3l8.5,16.2v.4H59.5Zm-6.5-6.6h6.6a7.08,7.08,0,0,0,4.8-1.5,5.44,5.44,0,0,0,1.7-4.3,6,6,0,0,0-1.6-4.4c-1.1-1.1-2.7-1.6-4.9-1.6H45.8C45.7,152.9,45.7,164.7,45.7,164.7Z"/><path class="cls-5" d="M103,146.3v26a13.63,13.63,0,0,1-4.1,10.3c-2.7,2.5-6.4,3.8-11.1,3.8s-8.3-1.2-11-3.7a13,13,0,0,1-4.1-10V146.4h8.1v26.1c0,2.6.6,4.4,1.8,5.7a7.06,7.06,0,0,0,5.1,1.8c4.6,0,6.9-2.4,7-7.2V146.5l8.3-.2Z"/><path class="cls-5" d="M140.6,172.6c-.3,4.2-1.8,7.6-4.7,10s-6.6,3.7-11.2,3.7c-5.1,0-9-1.7-12-5.1s-4.4-8.1-4.4-14v-2.4a24.11,24.11,0,0,1,2-10,14.62,14.62,0,0,1,5.8-6.7,16.61,16.61,0,0,1,8.7-2.3c4.5,0,8.2,1.2,11,3.7a15,15,0,0,1,4.8,10.3h-8.1c-.2-2.5-.9-4.4-2.1-5.5s-3.1-1.7-5.6-1.7a7,7,0,0,0-6.1,2.9c-1.4,1.9-2.1,5-2.1,9v3c0,4.3.6,7.4,1.9,9.4a6.72,6.72,0,0,0,6.1,3c2.5,0,4.4-.5,5.6-1.7a8.15,8.15,0,0,0,2.1-5.4h8.1v-.2Z"/><path class="cls-5" d="M169.8,168.7H154.2v10.6h18.3v6.5H146V146.3h26.5v6.6H154.2v9.4h15.6Z"/><path class="cls-5" d="M191.9,171.3h-6.5v14.5h-8.1V146.3h14.6c4.7,0,8.3,1.1,10.8,3.1a10.85,10.85,0,0,1,3.8,8.8,11.74,11.74,0,0,1-1.8,6.7,12.16,12.16,0,0,1-5.3,4.3l8.5,16.2v.4h-8.7Zm-6.5-6.6H192a7.08,7.08,0,0,0,4.8-1.5,5.31,5.31,0,0,0,1.7-4.3,6,6,0,0,0-1.6-4.4c-1.1-1.1-2.7-1.6-4.9-1.6h-6.5l-.1,11.8Z"/><path class="cls-5" d="M245.2,166.9a23.22,23.22,0,0,1-2.1,10.2,15.49,15.49,0,0,1-5.9,6.7,16.13,16.13,0,0,1-8.8,2.4,15.79,15.79,0,0,1-8.7-2.4,16.3,16.3,0,0,1-6-6.7,22.94,22.94,0,0,1-2.1-10v-1.9a24,24,0,0,1,2.1-10.3,15.35,15.35,0,0,1,6-6.8,16,16,0,0,1,8.7-2.4,15.79,15.79,0,0,1,8.7,2.4,16.65,16.65,0,0,1,6,6.8,24,24,0,0,1,2.1,10.3v1.7Zm-8.3-1.7c0-4.1-.8-7.3-2.2-9.4a7.4,7.4,0,0,0-6.4-3.2,7.22,7.22,0,0,0-6.3,3.2c-1.5,2.1-2.2,5.2-2.2,9.4v1.9c0,4.1.8,7.1,2.2,9.4a7.34,7.34,0,0,0,6.4,3.4,7.22,7.22,0,0,0,6.3-3.2c1.5-2.1,2.2-5.3,2.2-9.4v-2.1Z"/></g><g class="cls-3"><path class="cls-5" d="M81.5,117.8v9.7a5.14,5.14,0,0,1-.6,2.5,4,4,0,0,1-1.8,1.6,5.5,5.5,0,0,1-2.6.5,5.22,5.22,0,0,1-3.6-1.2,4.29,4.29,0,0,1-1.4-3.4v-9.8h1.2v9.6a3.81,3.81,0,1,0,7.6,0v-9.7l1.2.2Z"/><path class="cls-5" d="M95.5,132H94.3l-8.2-12.2V132H84.9V117.8h1.2L94.3,130V117.8h1.2Z"/></g><path class="cls-5" d="M108.8,130.2l.1.3.1-.3,4.4-12.4h1.3l-5.3,14.1h-1.1L103,117.8h1.3Z"/><path class="cls-5" d="M118.2,132H117V117.9h1.2Z"/><path class="cls-5" d="M129.8,128h-6.4l-1.5,4h-1.3l5.3-14.1H127l5.3,14.1h-1.2Zm-6-1h5.7l-2.8-7.7Z"/><path class="cls-5" d="M140.9,117.8h1.2v9.9a4.38,4.38,0,0,1-1.2,3.2,4.14,4.14,0,0,1-3.1,1.2,4.59,4.59,0,0,1-3.2-1.1,4.08,4.08,0,0,1-1.1-3h1.2a2.8,2.8,0,0,0,3.1,3.1,2.94,2.94,0,0,0,2.2-.9,3.24,3.24,0,0,0,.9-2.4v-10Z"/><path class="cls-5" d="M153.4,125.2h-6.6V131h7.6v1h-8.8V117.9h8.7v1h-7.5v5.3h6.6Z"/><path class="cls-5" d="M169.5,125.2h-6.6V131h7.6v1h-8.8V117.9h8.7v1h-7.5v5.3h6.6Z"/><path class="cls-5" d="M183.5,132h-1.2l-8.1-12.1V132H173V117.9h1.2l8.1,12.1V117.9h1.2Z"/><path class="cls-5" d="M124.5,238.6l2.5-4.8h1.4l-3.3,5.9v3.5h-1.2v-3.5l-3.3-5.9H122Z"/></g></g></g></g></g></svg>