<?xml version="1.0" encoding="utf-8"?>
<!-- Generator: Adobe Illustrator 23.1.1, SVG Export Plug-In . SVG Version: 6.00 Build 0)  -->
<svg version="1.1" id="Capa_1" xmlns="http://www.w3.org/2000/svg" xmlns:xlink="http://www.w3.org/1999/xlink" x="0px" y="0px"
	 viewBox="0 0 331 315" style="enable-background:new 0 0 331 315;" xml:space="preserve">
<style type="text/css">
	.st0{fill-rule:evenodd;clip-rule:evenodd;fill:#EFF8FD;}
	.st1{fill-rule:evenodd;clip-rule:evenodd;fill:#FEFEFE;}
	.st2{filter:url(#Adobe_OpacityMaskFilter);}
	.st3{fill-rule:evenodd;clip-rule:evenodd;fill:#FFFFFF;}
	.st4{mask:url(#mask-2_1_);fill-rule:evenodd;clip-rule:evenodd;fill:#FEFEFE;}
	.st5{filter:url(#Adobe_OpacityMaskFilter_1_);}
	.st6{mask:url(#mask-2_2_);fill-rule:evenodd;clip-rule:evenodd;fill:#FEFEFE;}
	.st7{filter:url(#Adobe_OpacityMaskFilter_2_);}
	.st8{mask:url(#mask-2_3_);fill-rule:evenodd;clip-rule:evenodd;fill:#FEFEFE;}
	.st9{filter:url(#Adobe_OpacityMaskFilter_3_);}
	.st10{mask:url(#mask-2_4_);fill-rule:evenodd;clip-rule:evenodd;fill:#FEFEFE;}
	.st11{filter:url(#Adobe_OpacityMaskFilter_4_);}
	.st12{mask:url(#mask-2_5_);fill-rule:evenodd;clip-rule:evenodd;fill:#FEFEFE;}
	.st13{filter:url(#Adobe_OpacityMaskFilter_5_);}
	.st14{mask:url(#mask-2_6_);fill-rule:evenodd;clip-rule:evenodd;fill:#FEFEFE;}
	.st15{filter:url(#Adobe_OpacityMaskFilter_6_);}
	.st16{mask:url(#mask-2_7_);fill-rule:evenodd;clip-rule:evenodd;fill:#FEFEFE;}
	.st17{filter:url(#Adobe_OpacityMaskFilter_7_);}
	.st18{mask:url(#mask-2_8_);fill-rule:evenodd;clip-rule:evenodd;fill:#FEFEFE;}
	.st19{filter:url(#Adobe_OpacityMaskFilter_8_);}
	.st20{mask:url(#mask-2_9_);fill-rule:evenodd;clip-rule:evenodd;fill:#FEFEFE;}
	.st21{filter:url(#Adobe_OpacityMaskFilter_9_);}
	.st22{mask:url(#mask-2_10_);fill-rule:evenodd;clip-rule:evenodd;fill:#FEFEFE;}
	.st23{filter:url(#Adobe_OpacityMaskFilter_10_);}
	.st24{mask:url(#mask-2_11_);fill-rule:evenodd;clip-rule:evenodd;fill:#FEFEFE;}
	.st25{filter:url(#Adobe_OpacityMaskFilter_11_);}
	.st26{mask:url(#mask-2_12_);fill-rule:evenodd;clip-rule:evenodd;fill:#FEFEFE;}
	.st27{filter:url(#Adobe_OpacityMaskFilter_12_);}
	.st28{mask:url(#mask-2_13_);fill-rule:evenodd;clip-rule:evenodd;fill:#FEFEFE;}
	.st29{enable-background:new    ;}
	.st30{fill:#00A8E0;}
	.st31{fill:#FFFFFF;}
	.st32{filter:url(#Adobe_OpacityMaskFilter_13_);}
	.st33{mask:url(#mask-4_1_);fill-rule:evenodd;clip-rule:evenodd;fill:#FFFFFF;}
</style>
<title>logo</title>
<desc>Created with Sketch.</desc>
<g>
	<g id="Group-5" transform="translate(203.000000, 148.000000)">
		<path id="Fill-3" class="st0" d="M43.2,26.7c-2.4-3.1-4.9-6-8.5-2.7c-0.3-3.5-2.4-5.6-5.9-6.5c-3.5-0.9-10.1,3-8,8.3
			c-1.7-1-3.7-1.8-5.6-1.1c-1.6,0.6-2,1.2-3,3.5C5.1,24.9,0.8,29.7-3,31h106c-5.5-2.3-11.3-3.3-17.1-2.7c3.6-5.7,2.8-13.7-2.7-17.5
			c-3.8-2.6-9-1.9-12.2,1.6c1.1-3.6-0.5-7.7-3.1-10c-2.6-2.2-6-2.8-9.1-2.4c-4.4,0.5-8.3,3.3-10,8.3c-2.1,6.2,1.8,16.1,1.8,16.1
			S45.2,20.3,43.2,26.7"/>
	</g>
	
		<g id="Group-5-Copy" transform="translate(77.000000, 163.500000) scale(-1, 1) translate(-77.000000, -163.500000) translate(24.000000, 148.000000)">
		<path class="st0" d="M49.2,26.7c-2.4-3.1-4.9-6-8.5-2.7c-0.3-3.5-2.4-5.6-5.9-6.5c-3.5-0.9-10.1,3-8,8.3c-1.7-1-3.7-1.8-5.6-1.1
			c-1.6,0.6-2,1.2-3,3.5C11.1,24.9,6.8,29.7,3,31h106c-5.5-2.3-11.3-3.3-17.1-2.7c3.6-5.7,2.8-13.7-2.7-17.5
			c-3.8-2.6-9-1.9-12.2,1.6c1.1-3.6-0.5-7.7-3.1-10c-2.6-2.2-6-2.8-9.1-2.4c-4.4,0.5-8.3,3.3-10,8.3c-2.1,6.2,1.8,16.1,1.8,16.1
			S51.2,20.3,49.2,26.7"/>
	</g>
	<g id="logopremier" transform="translate(51.000000, 285.000000)">
		<path id="Fill-1" class="st1" d="M167.2,0c-1.4,0-2.6,0.9-3,2.2h-7.4c-0.4-1.3-1.6-2.2-3-2.2c-1.8,0-3.2,1.5-3.2,3.2
			s1.4,3.2,3.2,3.2c1.4,0,2.6-0.9,3.1-2.2h7.3c0.4,1.3,1.6,2.2,3.1,2.2c1.8,0,3.2-1.4,3.2-3.2S169,0,167.2,0"/>
		<path class="st1" d="M37,20.8c-1.5,0-3.1-0.7-3.1-2.4V9.1h-4.3v9.3c0,3.5,3,5.8,7.4,5.8c4.6,0,7.4-2.2,7.4-5.8V9.1h-4.3v9.3
			C40.1,19.9,38.9,20.8,37,20.8"/>
		<path id="Fill-5" class="st1" d="M59.8,20.1c-0.3,0.3-0.8,0.5-1.6,0.5h-5v-2.9h5c0.9,0,1.3,0.3,1.6,0.5c0.2,0.2,0.4,0.6,0.4,1
			C60.2,19.7,59.9,20,59.8,20.1 M57.6,12.3c0.7,0,1.2,0.2,1.5,0.5c0.2,0.2,0.3,0.4,0.3,0.7c0,0.3-0.1,0.6-0.4,0.9
			c-0.3,0.3-0.8,0.4-1.4,0.4h-4.4v-2.5 M61.9,15.7L61.9,15.7L61.9,15.7c1.2-0.8,1.9-1.9,1.9-3c0-0.7-0.3-1.5-0.9-2.1
			c-1-1-2.6-1.6-4.8-1.6h-9.3v14.7h9.7c2.3,0,3.6-0.4,4.7-1.5c0.9-0.9,1.4-2,1.4-3.1C64.6,17.7,63.8,16.5,61.9,15.7"/>
		<path id="Fill-7" class="st1" d="M84.7,14.9c-0.5,0.5-1.1,0.5-1.3,0.5h-4.7v-3h4.7c0.4,0,1,0.1,1.3,0.5c0.2,0.3,0.4,0.7,0.4,1
			C85.1,14.2,85,14.6,84.7,14.9 M88.2,10.9c-1.1-1.2-2.8-1.8-5.1-1.8h-8.8v14.7h4.3v-5.1h4.4c2.2,0,3.8-0.5,5-1.7
			c0.9-0.8,1.3-2,1.3-3.2C89.4,12.8,89,11.7,88.2,10.9"/>
		<polygon id="Fill-9" class="st1" points="137.6,16.5 137.6,16.5 132.8,9.1 128.9,9.1 128.9,23.8 133.1,23.8 133.1,16.9 
			133.3,16.9 133.3,16.9 136.8,22.1 138.3,22.1 141.8,16.9 141.9,16.9 141.9,23.8 146.3,23.8 146.3,9.1 142.5,9.1 137.7,16.5 		"/>
		<g id="Clip-12">
		</g>
		<defs>
			<filter id="Adobe_OpacityMaskFilter" filterUnits="userSpaceOnUse" x="150.9" y="9.1" width="4.3" height="14.7">
				<feColorMatrix  type="matrix" values="1 0 0 0 0  0 1 0 0 0  0 0 1 0 0  0 0 0 1 0"/>
			</filter>
		</defs>
		<mask maskUnits="userSpaceOnUse" x="150.9" y="9.1" width="4.3" height="14.7" id="mask-2_1_">
			<g class="st2">
				<polygon id="path-1_1_" class="st3" points="-3,29.3 232.2,29.3 232.2,0 -3,0 				"/>
			</g>
		</mask>
		<polygon id="Fill-11" class="st4" points="150.9,23.8 155.2,23.8 155.2,9.1 150.9,9.1 		"/>
		<defs>
			<filter id="Adobe_OpacityMaskFilter_1_" filterUnits="userSpaceOnUse" x="16.6" y="9.1" width="11.1" height="14.7">
				<feColorMatrix  type="matrix" values="1 0 0 0 0  0 1 0 0 0  0 0 1 0 0  0 0 0 1 0"/>
			</filter>
		</defs>
		<mask maskUnits="userSpaceOnUse" x="16.6" y="9.1" width="11.1" height="14.7" id="mask-2_2_">
			<g class="st5">
				<polygon id="path-1_2_" class="st3" points="-3,29.3 232.2,29.3 232.2,0 -3,0 				"/>
			</g>
		</mask>
		<path id="Fill-13" class="st6" d="M20.7,20.5V9.1h-4.1v12.4c0,0-0.2,2.4,1.9,2.4h9.2v-3.3H20.7z"/>
		<defs>
			<filter id="Adobe_OpacityMaskFilter_2_" filterUnits="userSpaceOnUse" x="159.7" y="9.1" width="13.9" height="14.8">
				<feColorMatrix  type="matrix" values="1 0 0 0 0  0 1 0 0 0  0 0 1 0 0  0 0 0 1 0"/>
			</filter>
		</defs>
		<mask maskUnits="userSpaceOnUse" x="159.7" y="9.1" width="13.9" height="14.8" id="mask-2_3_">
			<g class="st7">
				<polygon id="path-1_3_" class="st3" points="-3,29.3 232.2,29.3 232.2,0 -3,0 				"/>
			</g>
		</mask>
		<path id="Fill-14" class="st8" d="M163.8,20.6V18h7.9v-3.1h-7.9v-2.3h9.2V9.1h-13.3l0,12.4c0,0,0,2.4,1.9,2.4h11.9v-3.3H163.8z"/>
		<defs>
			<filter id="Adobe_OpacityMaskFilter_3_" filterUnits="userSpaceOnUse" x="111.2" y="9.1" width="13.9" height="14.8">
				<feColorMatrix  type="matrix" values="1 0 0 0 0  0 1 0 0 0  0 0 1 0 0  0 0 0 1 0"/>
			</filter>
		</defs>
		<mask maskUnits="userSpaceOnUse" x="111.2" y="9.1" width="13.9" height="14.8" id="mask-2_4_">
			<g class="st9">
				<polygon id="path-1_4_" class="st3" points="-3,29.3 232.2,29.3 232.2,0 -3,0 				"/>
			</g>
		</mask>
		<path id="Fill-15" class="st10" d="M115.4,20.6V18h7.9v-3.1h-7.9v-2.3h9.2V9.1h-13.3l0,12.4c0,0,0,2.4,1.9,2.4h11.9v-3.3H115.4z"
			/>
		<defs>
			<filter id="Adobe_OpacityMaskFilter_4_" filterUnits="userSpaceOnUse" x="-3" y="8.7" width="16.8" height="15.5">
				<feColorMatrix  type="matrix" values="1 0 0 0 0  0 1 0 0 0  0 0 1 0 0  0 0 0 1 0"/>
			</filter>
		</defs>
		<mask maskUnits="userSpaceOnUse" x="-3" y="8.7" width="16.8" height="15.5" id="mask-2_5_">
			<g class="st11">
				<polygon id="path-1_5_" class="st3" points="-3,29.3 232.2,29.3 232.2,0 -3,0 				"/>
			</g>
		</mask>
		<path id="Fill-16" class="st12" d="M12.7,20.2c-1.4-1.3-3.5,0-3.5,0c-1,0.5-2,0.7-2.9,0.7c-2.9,0-5-1.9-5-4.5
			c0-2.6,2.1-4.4,4.9-4.4c1,0,2.1,0.3,3.2,0.8c0,0,1.6,0.9,2.9-0.6l1.1-1.1c-2.2-1.5-5.1-2.4-7.7-2.4C0.7,8.7-3,12-3,16.4
			c0,4.5,3.7,7.7,8.7,7.7c3.9,0,6.7-1.8,8.1-2.9L12.7,20.2z"/>
		<defs>
			<filter id="Adobe_OpacityMaskFilter_5_" filterUnits="userSpaceOnUse" x="92.3" y="9" width="15.9" height="14.8">
				<feColorMatrix  type="matrix" values="1 0 0 0 0  0 1 0 0 0  0 0 1 0 0  0 0 0 1 0"/>
			</filter>
		</defs>
		<mask maskUnits="userSpaceOnUse" x="92.3" y="9" width="15.9" height="14.8" id="mask-2_6_">
			<g class="st13">
				<polygon id="path-1_6_" class="st3" points="-3,29.3 232.2,29.3 232.2,0 -3,0 				"/>
			</g>
		</mask>
		<path id="Fill-17" class="st14" d="M102.6,14.9c-0.3,0.3-0.7,0.4-1.3,0.4h-4.7v-2.9h4.7c0.4,0,1,0.1,1.3,0.5
			c0.2,0.3,0.4,0.6,0.4,1C103,14.3,102.9,14.6,102.6,14.9L102.6,14.9z M104.6,18c1.8-0.9,2.8-2.3,2.8-4.1c0-1.2-0.5-2.3-1.3-3.2
			c-1-1-2.5-1.7-5-1.7h-8.8v14.8h4.4v-5.1h3.6l2.2,3.7c0,0,0.8,1.4,2.5,1.4h3.3L104.6,18z"/>
		<defs>
			<filter id="Adobe_OpacityMaskFilter_6_" filterUnits="userSpaceOnUse" x="177.3" y="9" width="15.9" height="14.8">
				<feColorMatrix  type="matrix" values="1 0 0 0 0  0 1 0 0 0  0 0 1 0 0  0 0 0 1 0"/>
			</filter>
		</defs>
		<mask maskUnits="userSpaceOnUse" x="177.3" y="9" width="15.9" height="14.8" id="mask-2_7_">
			<g class="st15">
				<polygon id="path-1_7_" class="st3" points="-3,29.3 232.2,29.3 232.2,0 -3,0 				"/>
			</g>
		</mask>
		<path id="Fill-18" class="st16" d="M187.6,14.9c-0.3,0.3-0.7,0.4-1.3,0.4h-4.7v-2.9h4.7c0.4,0,1,0.1,1.3,0.5
			c0.2,0.3,0.4,0.6,0.4,1C188.1,14.3,187.9,14.6,187.6,14.9L187.6,14.9z M189.6,18c1.8-0.9,2.8-2.3,2.8-4.1c0-1.2-0.5-2.3-1.3-3.2
			c-1-1-2.5-1.7-5-1.7h-8.8v14.8h4.4v-5.1h3.6l2.2,3.7c0,0,0.8,1.4,2.5,1.4h3.3L189.6,18z"/>
		<defs>
			<filter id="Adobe_OpacityMaskFilter_7_" filterUnits="userSpaceOnUse" x="221.1" y="13.1" width="9.1" height="10.7">
				<feColorMatrix  type="matrix" values="1 0 0 0 0  0 1 0 0 0  0 0 1 0 0  0 0 0 1 0"/>
			</filter>
		</defs>
		<mask maskUnits="userSpaceOnUse" x="221.1" y="13.1" width="9.1" height="10.7" id="mask-2_8_">
			<g class="st17">
				<polygon id="path-1_8_" class="st3" points="-3,29.3 232.2,29.3 232.2,0 -3,0 				"/>
			</g>
		</mask>
		<path id="Fill-19" class="st18" d="M228.3,13.5c-0.1-0.3-0.5-0.5-1-0.2c-0.1,0-1.3,0.9-1.3,0.9c-0.8-0.4-1.4-0.7-1.9-0.9
			c-0.3-0.1-0.6-0.3-1-0.3c-0.9,0-1.9,0.8-2,1.9c0,0.6,0,5.8,0,6.6c0,1.1,1,2.2,2.3,2.2h3.4c1.5,0,1.8-1.3,1.8-1.7
			c0-0.6,0-2.5,0-2.8c0-0.2,0-0.6,0.4-0.7c0.3,0,0.6-0.1,0.8-0.1c0.3-0.1,0.4-0.4,0.3-0.6C229.7,16.3,228.8,14.4,228.3,13.5"/>
		<defs>
			<filter id="Adobe_OpacityMaskFilter_8_" filterUnits="userSpaceOnUse" x="202.7" y="6.1" width="29.5" height="18.9">
				<feColorMatrix  type="matrix" values="1 0 0 0 0  0 1 0 0 0  0 0 1 0 0  0 0 0 1 0"/>
			</filter>
		</defs>
		<mask maskUnits="userSpaceOnUse" x="202.7" y="6.1" width="29.5" height="18.9" id="mask-2_9_">
			<g class="st19">
				<polygon id="path-1_9_" class="st3" points="-3,29.3 232.2,29.3 232.2,0 -3,0 				"/>
			</g>
		</mask>
		<path id="Fill-20" class="st20" d="M232.2,13c0-1.9-1.4-4-4-4.1c-2.1,0-3.3,0.7-3.7,0.9c0,0-0.1,0-0.1,0c-0.4-0.4-1.2-1-2.2-1.2
			c-0.1,0-0.2-0.2,0-0.3c2-0.2,3.7,0,4.5,0.1c0.2,0,0.3-0.1,0.2-0.2c0-0.1-0.1-0.2-0.2-0.4c-0.2-0.4-0.6-0.8-1.2-1
			c-1.6-0.4-4.2-0.8-6.6-0.8c-2.7,0-5.5,0.5-6.2,0.7c-0.2,0-0.4,0.1-0.5,0.1c-0.2,0-0.2,0.2-0.2,0.3c0.1,0.1,0.2,0.2,0.3,0.3
			c0.1,0.1,0.1,0.3,0,0.4l-5,4.5h3.4l0,0c0.2,0,0.4,0.2,0.4,0.4c0,0.2-0.2,0.4-0.4,0.4l0,0h-4.4l-1.3,1.2h5.8l0,0
			c0.2,0,0.4,0.2,0.4,0.4c0,0.2-0.2,0.4-0.4,0.4l0,0H204l-1.3,1.2h11.6l0,0c0.2,0,0.4,0.2,0.4,0.4c0,0.2-0.2,0.5-0.4,0.5l0,0h-11.7
			v1.2h11.6h0c0.3,0,0.4,0.2,0.4,0.5c0,0.2-0.2,0.4-0.4,0.4l0,0h-11.6l0,1.2h15.2l0,0c0.2,0,0.4,0.2,0.4,0.5c0,0.2-0.2,0.4-0.4,0.4
			l0,0h-11.1v1.2h11h0.2c0.2,0,0.4,0.3,0.4,0.5c0,0.2-0.2,0.4-0.4,0.4h-0.2h-11V25h12.9c0,0,0.5-1.1,0.5-2.3c0-0.1,0-8.3,0-8.3
			c0-0.7,0.3-1.8,1.6-2c0,0,0.1,0,0.1,0c3.8-0.9,7.7-0.1,9.9,0.9C232.1,13.5,232.2,13.2,232.2,13"/>
		<defs>
			<filter id="Adobe_OpacityMaskFilter_9_" filterUnits="userSpaceOnUse" x="210.8" y="28" width="6.4" height="1.2">
				<feColorMatrix  type="matrix" values="1 0 0 0 0  0 1 0 0 0  0 0 1 0 0  0 0 0 1 0"/>
			</filter>
		</defs>
		<mask maskUnits="userSpaceOnUse" x="210.8" y="28" width="6.4" height="1.2" id="mask-2_10_">
			<g class="st21">
				<polygon id="path-1_10_" class="st3" points="-3,29.3 232.2,29.3 232.2,0 -3,0 				"/>
			</g>
		</mask>
		<path id="Fill-21" class="st22" d="M210.8,29.3c0,0,1.6,0,2.6,0c2.3,0,3.8-1.2,3.8-1.2h-6.4L210.8,29.3z"/>
		<defs>
			<filter id="Adobe_OpacityMaskFilter_10_" filterUnits="userSpaceOnUse" x="210.8" y="25.9" width="8.3" height="1.2">
				<feColorMatrix  type="matrix" values="1 0 0 0 0  0 1 0 0 0  0 0 1 0 0  0 0 0 1 0"/>
			</filter>
		</defs>
		<mask maskUnits="userSpaceOnUse" x="210.8" y="25.9" width="8.3" height="1.2" id="mask-2_11_">
			<g class="st23">
				<polygon id="path-1_11_" class="st3" points="-3,29.3 232.2,29.3 232.2,0 -3,0 				"/>
			</g>
		</mask>
		<path id="Fill-22" class="st24" d="M210.8,27.1h7.4c0.3-0.3,0.8-1,0.9-1.2h-8.3L210.8,27.1z"/>
		<defs>
			<filter id="Adobe_OpacityMaskFilter_11_" filterUnits="userSpaceOnUse" x="209.6" y="28.4" width="0.4" height="0.6">
				<feColorMatrix  type="matrix" values="1 0 0 0 0  0 1 0 0 0  0 0 1 0 0  0 0 0 1 0"/>
			</filter>
		</defs>
		<mask maskUnits="userSpaceOnUse" x="209.6" y="28.4" width="0.4" height="0.6" id="mask-2_12_">
			<g class="st25">
				<polygon id="path-1_12_" class="st3" points="-3,29.3 232.2,29.3 232.2,0 -3,0 				"/>
			</g>
		</mask>
		<path id="Fill-23" class="st26" d="M209.7,28.6v-0.2h0.1c0.1,0,0.1,0,0.1,0.1C209.9,28.6,209.9,28.6,209.7,28.6L209.7,28.6z
			 M210.1,28.5c0-0.1-0.1-0.2-0.2-0.2h-0.2v0.6h0.1v-0.2h0.1l0.1,0.2h0.1l-0.2-0.2C210,28.7,210.1,28.6,210.1,28.5L210.1,28.5z"/>
		<defs>
			<filter id="Adobe_OpacityMaskFilter_12_" filterUnits="userSpaceOnUse" x="209.3" y="28.1" width="1" height="1">
				<feColorMatrix  type="matrix" values="1 0 0 0 0  0 1 0 0 0  0 0 1 0 0  0 0 0 1 0"/>
			</filter>
		</defs>
		<mask maskUnits="userSpaceOnUse" x="209.3" y="28.1" width="1" height="1" id="mask-2_13_">
			<g class="st27">
				<polygon id="path-1_13_" class="st3" points="-3,29.3 232.2,29.3 232.2,0 -3,0 				"/>
			</g>
		</mask>
		<path id="Fill-24" class="st28" d="M209.8,29c-0.2,0-0.4-0.2-0.4-0.4c0-0.2,0.2-0.4,0.4-0.4s0.4,0.2,0.4,0.4
			C210.2,28.9,210,29,209.8,29 M209.8,28.1c-0.3,0-0.5,0.2-0.5,0.5c0,0.3,0.2,0.5,0.5,0.5c0.3,0,0.5-0.2,0.5-0.5
			C210.3,28.4,210.1,28.1,209.8,28.1"/>
	</g>
	<g class="st29">
		<path class="st30" d="M109.9,127.3c-2,2.4-4.8,4.2-8.4,5.5c-3.6,1.3-7.6,2-12,2c-4.6,0-8.7-1-12.1-3c-3.5-2-6.2-4.9-8.1-8.8
			s-2.9-8.3-2.9-13.5v-3.6c0-5.3,0.9-9.9,2.7-13.8c1.8-3.9,4.4-6.9,7.8-8.9s7.3-3.1,11.9-3.1c6.3,0,11.3,1.5,14.8,4.5
			c3.6,3,5.7,7.4,6.3,13.2H99.3c-0.5-3.1-1.6-5.3-3.2-6.7s-4-2.1-6.9-2.1c-3.7,0-6.6,1.4-8.5,4.2c-2,2.8-2.9,7-3,12.5v3.4
			c0,5.6,1.1,9.8,3.2,12.7s5.2,4.3,9.3,4.3c4.1,0,7.1-0.9,8.8-2.6v-9.2H89V106h21V127.3z"/>
		<path class="st30" d="M148.9,123h-19.3l-3.7,11h-11.7l19.8-53.3h10.2l20,53.3h-11.7L148.9,123z M132.7,114.1H146l-6.7-20
			L132.7,114.1z"/>
		<path class="st30" d="M212.7,134h-11l-21.4-35.1V134h-11V80.7h11l21.4,35.2V80.7h10.9V134z"/>
		<path class="st30" d="M253,123h-19.3l-3.7,11h-11.7l19.8-53.3h10.2l20,53.3h-11.7L253,123z M236.7,114.1h13.3l-6.7-20L236.7,114.1
			z"/>
	</g>
	<g class="st29">
		<path class="st31" d="M158.3,276.2c-0.1,1.3-0.6,2.3-1.4,3c-0.8,0.7-1.9,1-3.2,1c-1.4,0-2.6-0.5-3.4-1.5c-0.9-1-1.3-2.4-1.3-4.1
			v-1.2c0-1.1,0.2-2.1,0.6-3c0.4-0.9,1-1.5,1.7-2c0.7-0.5,1.6-0.7,2.6-0.7c1.3,0,2.3,0.4,3.1,1.1s1.2,1.7,1.4,3h-1.6
			c-0.1-1-0.4-1.7-0.9-2.1c-0.5-0.4-1.1-0.6-1.9-0.6c-1,0-1.8,0.4-2.4,1.1c-0.6,0.8-0.9,1.8-0.9,3.2v1.2c0,1.3,0.3,2.4,0.8,3.1
			s1.3,1.2,2.3,1.2c0.9,0,1.6-0.2,2-0.6c0.5-0.4,0.8-1.1,0.9-2.1H158.3z"/>
		<path class="st31" d="M169.8,274.3c0,1.2-0.2,2.2-0.6,3.1s-1,1.6-1.7,2s-1.6,0.7-2.6,0.7c-1,0-1.8-0.2-2.5-0.7s-1.3-1.1-1.7-2
			c-0.4-0.9-0.6-1.9-0.6-3v-0.9c0-1.2,0.2-2.2,0.6-3.1s1-1.6,1.7-2c0.7-0.5,1.6-0.7,2.5-0.7c1,0,1.8,0.2,2.6,0.7s1.3,1.1,1.7,2
			c0.4,0.9,0.6,1.9,0.6,3.1V274.3z M168.2,273.6c0-1.4-0.3-2.5-0.9-3.3c-0.6-0.8-1.4-1.2-2.4-1.2c-1,0-1.8,0.4-2.4,1.2
			c-0.6,0.8-0.9,1.8-0.9,3.2v0.9c0,1.4,0.3,2.5,0.9,3.3c0.6,0.8,1.4,1.2,2.4,1.2c1,0,1.8-0.4,2.4-1.1s0.9-1.8,0.9-3.2V273.6z"/>
		<path class="st31" d="M181.4,280h-1.6l-6.1-9.3v9.3h-1.6v-12.1h1.6l6.1,9.4v-9.4h1.6V280z"/>
	</g>
	<g id="Group-6" transform="translate(130.000000, 0.000000)">
		<path class="st3" d="M53.5,1.9c1.4,0,2.6,1.2,2.6,2.6c0,1.4-1.2,2.6-2.6,2.6c-1.4,0-2.6-1.2-2.6-2.6C50.9,3.1,52.1,1.9,53.5,1.9
			 M58,4.5C58,2,56,0,53.5,0C51,0,49,2,49,4.5c0,0.7,0.2,1.3,0.4,1.9l-3.9-3.2c-0.6-0.5-1.5-0.4-2,0.2C43,4,43,4.9,43.7,5.4l4,3.3
			L12,48.8c0,0-6.4,2.5-9.3-5.8c-0.6-1.7,2.2-0.6,2.2-0.6L3.8,32L-3,39.5c0,0,1.7,0.9,1.9,2.2c0.2,1.3,0.4,8.9,6.3,13.7
			C6,55.9,5.8,60.8,5.8,61l0,0c0,0,4.9-1,5.6-0.4c5.8,5.1,13.2,3.9,14.6,3.9c1.3,0,2.5,1.5,2.5,1.5l6.2-8l-10.5,0.7
			c0,0,1.5,2.6-0.2,2.3c-8.7-1.4-7.3-8.2-7.3-8.2l33.3-42.1l-0.2-0.1l3.5,3c0.6,0.5,1.5,0.4,2-0.2c0.5-0.6,0.4-1.5-0.2-2.1l-2.8-2.4
			c0.4,0.1,0.8,0.2,1.2,0.2C56,9.1,58,7,58,4.5"/>
		<g transform="translate(18.000000, 0.000000)">
			<g id="Clip-4">
			</g>
			<defs>
				<filter id="Adobe_OpacityMaskFilter_13_" filterUnits="userSpaceOnUse" x="-2.8" y="0.2" width="59.6" height="66.5">
					<feColorMatrix  type="matrix" values="1 0 0 0 0  0 1 0 0 0  0 0 1 0 0  0 0 0 1 0"/>
				</filter>
			</defs>
			<mask maskUnits="userSpaceOnUse" x="-2.8" y="0.2" width="59.6" height="66.5" id="mask-4_1_">
				<g class="st32">
					<polygon id="path-3_1_" class="st3" points="-2.8,0.2 56.8,0.2 56.8,66.7 -2.8,66.7 					"/>
				</g>
			</mask>
			<path class="st33" d="M-0.8,4.2c0.3-1.4,1.6-2.3,3-2.1c1.4,0.3,2.3,1.6,2,3c-0.3,1.4-1.6,2.3-3,2.1C-0.2,7-1.1,5.6-0.8,4.2
				 M2.5,0.3C0.1-0.2-2.3,1.4-2.7,3.9c-0.5,2.5,1.1,4.8,3.6,5.3c0.7,0.1,1.3,0.1,1.9-0.1l-3.9,3.2c-0.6,0.5-0.7,1.4-0.2,2
				c0.5,0.6,1.4,0.7,2,0.2l4-3.3l32.4,42.5c0,0,1.3,6.8-7.4,8.1c-1.7,0.3-0.2-2.3-0.2-2.3l-10.4-0.9l6.1,8.1c0,0,1.2-1.5,2.5-1.5
				c1.3,0,8.7,1.3,14.5-3.7c0.7-0.6,5.4,0.5,5.5,0.5l0,0c0,0-0.1-5,0.6-5.6c6-4.7,6.3-12.3,6.5-13.6c0.2-1.3,2-2.1,2-2.1l-6.6-7.6
				L49,43.6c0,0,2.8-1,2.2,0.6c-3,8.3-9.3,5.7-9.3,5.7L7,9.4L6.8,9.5l3.5-2.9c0.6-0.5,0.7-1.4,0.2-2c-0.5-0.6-1.4-0.7-2-0.2L5.7,6.7
				C5.9,6.3,6,5.9,6.1,5.6C6.6,3.1,5,0.7,2.5,0.3"/>
		</g>
	</g>
	<g class="st29">
		<path class="st31" d="M43.6,227.2c-0.4,5.7-2.5,10.3-6.4,13.6c-3.8,3.3-8.9,4.9-15.1,4.9c-6.8,0-12.2-2.3-16.1-6.9
			c-3.9-4.6-5.9-10.9-5.9-19v-3.3c0-5.1,0.9-9.6,2.7-13.6c1.8-3.9,4.4-6.9,7.7-9c3.4-2.1,7.3-3.1,11.7-3.1c6.2,0,11.1,1.6,14.9,4.9
			c3.8,3.3,5.9,7.9,6.5,13.9h-11c-0.3-3.4-1.2-5.9-2.9-7.5c-1.6-1.5-4.2-2.3-7.5-2.3c-3.7,0-6.4,1.3-8.2,3.9
			c-1.8,2.6-2.8,6.7-2.8,12.2v4c0,5.8,0.9,10,2.6,12.6s4.5,4,8.3,4c3.4,0,5.9-0.8,7.6-2.3c1.7-1.5,2.6-3.9,2.9-7.2H43.6z"/>
		<path class="st31" d="M70.6,225.5h-8.8V245h-11v-53.3h19.8c6.3,0,11.2,1.4,14.6,4.2c3.4,2.8,5.1,6.8,5.1,11.9
			c0,3.6-0.8,6.7-2.4,9.1c-1.6,2.4-4,4.4-7.2,5.8l11.5,21.8v0.5H80.6L70.6,225.5z M61.8,216.6h8.9c2.8,0,4.9-0.7,6.4-2.1
			c1.5-1.4,2.3-3.3,2.3-5.8c0-2.5-0.7-4.5-2.1-5.9c-1.4-1.4-3.6-2.2-6.6-2.2h-8.8V216.6z"/>
		<path class="st31" d="M139.1,191.7v35.1c0,5.8-1.8,10.5-5.5,13.8c-3.7,3.4-8.6,5.1-15,5.1c-6.2,0-11.2-1.6-14.8-4.9
			c-3.7-3.3-5.5-7.8-5.6-13.6v-35.5h11v35.2c0,3.5,0.8,6,2.5,7.6c1.7,1.6,4,2.4,6.9,2.4c6.2,0,9.3-3.2,9.4-9.7v-35.5H139.1z"/>
		<path class="st31" d="M189.9,227.2c-0.4,5.7-2.5,10.3-6.4,13.6c-3.8,3.3-8.9,4.9-15.1,4.9c-6.8,0-12.2-2.3-16.1-6.9
			c-3.9-4.6-5.9-10.9-5.9-19v-3.3c0-5.1,0.9-9.6,2.7-13.6c1.8-3.9,4.4-6.9,7.7-9c3.4-2.1,7.3-3.1,11.7-3.1c6.2,0,11.1,1.6,14.9,4.9
			c3.8,3.3,5.9,7.9,6.5,13.9h-11c-0.3-3.4-1.2-5.9-2.9-7.5c-1.6-1.5-4.2-2.3-7.5-2.3c-3.7,0-6.4,1.3-8.2,3.9
			c-1.8,2.6-2.8,6.7-2.8,12.2v4c0,5.8,0.9,10,2.6,12.6s4.5,4,8.3,4c3.4,0,5.9-0.8,7.6-2.3c1.7-1.5,2.6-3.9,2.9-7.2H189.9z"/>
		<path class="st31" d="M229.2,221.9h-21.1v14.3h24.8v8.8h-35.7v-53.3h35.7v8.9h-24.7v12.7h21.1V221.9z"/>
		<path class="st31" d="M259.1,225.5h-8.8V245h-11v-53.3h19.8c6.3,0,11.2,1.4,14.6,4.2c3.4,2.8,5.1,6.8,5.1,11.9
			c0,3.6-0.8,6.7-2.4,9.1c-1.6,2.4-4,4.4-7.2,5.8l11.5,21.8v0.5h-11.8L259.1,225.5z M250.3,216.6h8.9c2.8,0,4.9-0.7,6.4-2.1
			s2.3-3.3,2.3-5.8c0-2.5-0.7-4.5-2.1-5.9c-1.4-1.4-3.6-2.2-6.6-2.2h-8.8V216.6z"/>
		<path class="st31" d="M331,219.5c0,5.2-0.9,9.9-2.8,13.8s-4.5,7-8,9.2c-3.5,2.1-7.4,3.2-11.9,3.2c-4.4,0-8.4-1.1-11.8-3.2
			c-3.5-2.1-6.2-5.2-8.1-9.1s-2.9-8.5-2.9-13.6v-2.6c0-5.2,0.9-9.9,2.8-13.9c1.9-4,4.6-7.1,8-9.2c3.5-2.1,7.4-3.2,11.8-3.2
			s8.4,1.1,11.8,3.2c3.5,2.1,6.1,5.2,8,9.2c1.9,4,2.8,8.6,2.8,13.8V219.5z M319.9,217.1c0-5.6-1-9.8-3-12.7c-2-2.9-4.9-4.4-8.6-4.4
			c-3.7,0-6.5,1.4-8.5,4.3c-2,2.9-3,7.1-3,12.6v2.6c0,5.4,1,9.7,3,12.7c2,3,4.9,4.5,8.6,4.5c3.7,0,6.5-1.4,8.5-4.3
			c2-2.9,3-7.1,3-12.7V217.1z"/>
	</g>
	<g class="st29">
		<path class="st31" d="M162.6,158.8v13.1c0,1.3-0.3,2.4-0.9,3.4s-1.4,1.7-2.4,2.2c-1,0.5-2.2,0.8-3.5,0.8c-2,0-3.6-0.6-4.9-1.7
			c-1.2-1.1-1.8-2.6-1.9-4.6v-13.2h1.6v13c0,1.6,0.5,2.9,1.4,3.8c0.9,0.9,2.2,1.3,3.8,1.3s2.8-0.4,3.8-1.3c0.9-0.9,1.4-2.1,1.4-3.7
			v-13H162.6z"/>
		<path class="st31" d="M181.5,178h-1.6l-11-16.4V178h-1.6v-19.2h1.6l11,16.4v-16.4h1.6V178z"/>
	</g>
</g>
</svg>
