<svg xmlns="http://www.w3.org/2000/svg" viewBox="0 0 174.3 21.7"><defs><style>.cls-1{fill:#fefefe;}</style></defs><title>logopremier</title><g id="Capa_2" data-name="Capa 2"><g id="Capa_1-2" data-name="Capa 1"><g id="logopremier"><path id="Fill-1" class="cls-1" d="M126.1,0a2.28,2.28,0,0,0-2.2,1.6h-5.4A2.38,2.38,0,0,0,116.3,0a2.43,2.43,0,0,0-2.4,2.4,2.43,2.43,0,0,0,2.4,2.4,2.51,2.51,0,0,0,2.3-1.6H124a2.42,2.42,0,0,0,4.7-.8A2.62,2.62,0,0,0,126.1,0"/><path id="Fill-3" class="cls-1" d="M29.7,15.5c-1.2,0-2.3-.5-2.3-1.8V6.8H24.2v6.9c0,2.6,2.2,4.3,5.5,4.3s5.5-1.7,5.5-4.3V6.8H32v6.9c0,1.1-.9,1.8-2.3,1.8"/><path id="Fill-5" class="cls-1" d="M46.6,14.9a1.69,1.69,0,0,1-1.2.4H41.7V13.2h3.7a1.52,1.52,0,0,1,1.2.4,1.08,1.08,0,0,1,.3.7c-.1.3-.3.5-.3.6M45,9.1a1.37,1.37,0,0,1,1.1.4.55.55,0,0,1,.2.5,1.07,1.07,0,0,1-.2.6c-.3.3-.6.3-1.1.3H41.7V9.1m6.4,2.5h0a2.9,2.9,0,0,0,1.5-2.2A2.2,2.2,0,0,0,49,7.9a4.49,4.49,0,0,0-3.5-1.2h-7V17.6h7.2c1.8,0,2.7-.3,3.5-1.1a3.19,3.19,0,0,0,1-2.3,3,3,0,0,0-2.1-2.6"/><path id="Fill-7" class="cls-1" d="M65,11.1a1.33,1.33,0,0,1-.9.3H60.6V9.3h3.5a1.43,1.43,0,0,1,1,.4,1.14,1.14,0,0,1,.3.8,6.13,6.13,0,0,1-.4.6m2.6-3a4.87,4.87,0,0,0-3.8-1.3H57.3V17.7h3.2V13.9h3.3a5.31,5.31,0,0,0,3.7-1.2,3.45,3.45,0,0,0,1-2.3,3.17,3.17,0,0,0-.9-2.3"/><polygon id="Fill-9" class="cls-1" points="104.2 12.2 104.2 12.2 100.7 6.7 97.8 6.7 97.8 17.7 100.8 17.7 100.8 12.5 101 12.5 101 12.5 103.6 16.4 104.8 16.4 107.3 12.5 107.4 12.5 107.4 17.7 110.7 17.7 110.7 6.7 107.8 6.7 104.3 12.2 104.2 12.2"/><polygon id="Fill-11" class="cls-1" points="114 17.7 117.3 17.7 117.3 6.7 114 6.7 114 17.7"/><path id="Fill-13" class="cls-1" d="M17.6,15.2V6.7H14.5v9.1s-.2,1.8,1.4,1.8h6.8V15.1l-5.1.1Z"/><path id="Fill-14" class="cls-1" d="M123.6,15.3V13.4h5.8V11.1h-5.8V9.3h6.8V6.7h-9.9v9.2s0,1.8,1.5,1.8h8.8V15.3Z"/><path id="Fill-15" class="cls-1" d="M87.7,15.3V13.4h5.8V11.1H87.7V9.3h6.8V6.7H84.6v9.2s0,1.8,1.5,1.8h8.8V15.3Z"/><path id="Fill-16" class="cls-1" d="M11.6,15c-1-.9-2.6,0-2.6,0a4.55,4.55,0,0,1-2.1.5,3.43,3.43,0,0,1-3.7-3.3A3.35,3.35,0,0,1,6.8,8.9a6,6,0,0,1,2.4.6A1.6,1.6,0,0,0,11.3,9l.8-.8A10,10,0,0,0,6.3,6.4,6,6,0,0,0,0,12.2C0,15.5,2.7,18,6.4,18a9.7,9.7,0,0,0,6-2.1Z"/><path id="Fill-17" class="cls-1" d="M78.2,11.1a1.22,1.22,0,0,1-.9.3H73.8V9.3h3.5a1.43,1.43,0,0,1,1,.4,1.08,1.08,0,0,1,.3.7.87.87,0,0,1-.4.7Zm1.6,2.2a3.45,3.45,0,0,0,2.1-3.1,3.26,3.26,0,0,0-1-2.3c-.8-.8-1.8-1.2-3.7-1.2H70.7v11H74V13.9h2.6l1.6,2.8a2.22,2.22,0,0,0,1.8,1h2.5Z"/><path id="Fill-18" class="cls-1" d="M141.3,11.1a1.22,1.22,0,0,1-.9.3h-3.5V9.3h3.5a1.43,1.43,0,0,1,1,.4,1.08,1.08,0,0,1,.3.7,2.51,2.51,0,0,1-.4.7Zm1.4,2.2a3.45,3.45,0,0,0,2.1-3.1,3.26,3.26,0,0,0-1-2.3c-.8-.8-1.8-1.2-3.7-1.2h-6.5v11h3.3V13.9h2.6l1.6,2.8a2.22,2.22,0,0,0,1.8,1h2.5Z"/><path id="Fill-19" class="cls-1" d="M171.4,10a.48.48,0,0,0-.7-.2,8.65,8.65,0,0,0-1,.7c-.6-.3-1.1-.5-1.5-.7a1.88,1.88,0,0,0-.8-.2,1.45,1.45,0,0,0-1.5,1.4v4.9a1.74,1.74,0,0,0,1.7,1.6h2.5a1.21,1.21,0,0,0,1.3-1.2V14.2c0-.2,0-.5.3-.5s.5-.1.6-.1a.37.37,0,0,0,.2-.5,9.47,9.47,0,0,0-1.1-3.1"/><path id="Fill-20" class="cls-1" d="M174.3,9.7a3.12,3.12,0,0,0-2.9-3.1,5.35,5.35,0,0,0-2.8.7h-.1a4,4,0,0,0-1.6-.9c-.1,0-.1-.2,0-.2a10.52,10.52,0,0,1,3.3.1c.2,0,.2-.1.2-.2a.22.22,0,0,0-.2-.2,1.6,1.6,0,0,0-.9-.7,21.83,21.83,0,0,0-4.9-.6,25.77,25.77,0,0,0-4.6.5.44.44,0,0,0-.3.1c-.2,0-.2.2-.1.2s.2.2.2.2a.19.19,0,0,1,0,.3L155.8,9h2.5a.32.32,0,0,1,.3.3.45.45,0,0,1-.3.3H155l-1,.9h4.3a.3.3,0,1,1,0,.6h-5.1l-1,.9h8.7a.3.3,0,1,1,0,.6h-8.7v.9h8.7c.2,0,.3.2.3.4a.32.32,0,0,1-.3.3h-8.6v.9h11.3a.3.3,0,1,1,0,.6h-8.1v.9h8.3a.3.3,0,1,1,0,.6h-8.3v.9H165a4.29,4.29,0,0,0,.4-1.7V10.3a1.43,1.43,0,0,1,1.2-1.5h.1a12.54,12.54,0,0,1,7.4.6c.1.6.2.4.2.3"/><path id="Fill-21" class="cls-1" d="M158.4,21.7h1.9a4.74,4.74,0,0,0,2.8-.9h-4.8v.9Z"/><path id="Fill-22" class="cls-1" d="M158.4,20.1h5.5a5.5,5.5,0,0,0,.7-.9h-6.2Z"/><path id="Fill-23" class="cls-1" d="M157.7,21.2V21h.1c.1,0,.1,0,.1.1s-.2.1-.2.1Zm.2-.1a.22.22,0,0,0-.2-.2h-.2v.5h.1v-.2h.1l.1.2h.1v-.3c-.1.2,0,.1,0,0Z"/><path id="Fill-24" class="cls-1" d="M157.7,21.5a.32.32,0,0,1-.3-.3.45.45,0,0,1,.3-.3.32.32,0,0,1,.3.3.27.27,0,0,1-.3.3m0-.6a.4.4,0,1,0,.4.4c-.1-.2-.2-.4-.4-.4"/></g></g></g></svg>