<?xml version="1.0" encoding="utf-8"?>
<!-- Generator: Adobe Illustrator 22.1.0, SVG Export Plug-In . SVG Version: 6.00 Build 0)  -->
<svg version="1.1" id="Capa_1" xmlns="http://www.w3.org/2000/svg" xmlns:xlink="http://www.w3.org/1999/xlink" x="0px" y="0px"
	 viewBox="0 0 331 315" style="enable-background:new 0 0 331 315;" xml:space="preserve">
<style type="text/css">
	.st0{fill:#EFF8FD;}
	.st1{fill:#FEFEFE;}
	.st2{enable-background:new    ;}
	.st3{fill:#00A8E0;}
	.st4{fill:#FFFFFF;}
</style>
<title>logo</title>
<desc>Created with Sketch.</desc>
<g id="Desk">
	<g id="Desktop-HD" transform="translate(-466.000000, -159.000000)">
		<g id="logo" transform="translate(463.000000, 159.000000)">
			<g id="Group-5" transform="translate(203.000000, 148.000000)">
				<path id="Fill-3" class="st0" d="M57.7-6.4c-1.5-1.9-3-3.7-5.2-1.6c-0.2-2.2-1.5-3.4-3.6-4c-2.2-0.5-6.2,1.8-5,5
					c-1-0.6-2.3-1.1-3.4-0.7c-0.9,0.4-1.2,0.7-1.8,2.2c-4.3-2.1-7,0.9-9.3,1.7h64.8c-3.4-1.5-7-2-10.4-1.6c2.2-3.5,1.7-8.3-1.6-10.7
					c-2.3-1.6-5.5-1.1-7.4,1c0.6-2.2-0.3-4.7-1.9-6.1c-1.5-1.3-3.6-1.7-5.5-1.5c-2.7,0.3-5.1,2-6.1,5.1c-1.3,3.8,1.1,9.9,1.1,9.9
					S58.9-10.3,57.7-6.4"/>
			</g>
			
				<g id="Group-5-Copy" transform="translate(77.000000, 163.500000) scale(-1, 1) translate(-77.000000, -163.500000) translate(24.000000, 148.000000)">
				<path id="Fill-3_1_" class="st0" d="M42.7-6.4c-1.5-1.9-3-3.7-5.2-1.6c-0.2-2.2-1.5-3.4-3.6-4c-2.2-0.5-6.2,1.8-4.9,5.1
					c-1-0.6-2.3-1.1-3.4-0.7c-1,0.3-1.3,0.6-1.9,2.1c-4.3-2.1-7,0.9-9.3,1.7h64.8c-3.4-1.5-7-2-10.4-1.6c2.2-3.5,1.7-8.3-1.6-10.7
					c-2.3-1.6-5.5-1.1-7.4,1c0.6-2.2-0.3-4.7-1.9-6.1c-1.6-1.3-3.7-1.7-5.6-1.5c-2.7,0.3-5.1,2-6.1,5.1c-1.3,3.8,1.1,9.9,1.1,9.9
					S43.9-10.3,42.7-6.4"/>
			</g>
			<g id="logopremier" transform="translate(51.000000, 285.000000)">
				<path id="Fill-1" class="st1" d="M156.3-66.2c-1.1,0-1.9,0.7-2.2,1.6h-5.4c-0.3-0.9-1.2-1.6-2.2-1.6c-1.3,0-2.4,1.1-2.4,2.4
					c0,1.3,1.1,2.4,2.4,2.4c1.1,0,1.9-0.7,2.3-1.6h5.4c0.3,0.9,1.2,1.6,2.3,1.6c1.3,0,2.4-1.1,2.4-2.4
					C158.8-65.1,157.7-66.2,156.3-66.2"/>
				<path id="Fill-3_2_" class="st1" d="M59.9-50.7c-1.2,0-2.3-0.5-2.3-1.8v-6.9h-3.2v6.9c0,2.6,2.2,4.3,5.5,4.3
					c3.4,0,5.5-1.7,5.5-4.3v-6.9h-3.2v6.9C62.2-51.4,61.3-50.7,59.9-50.7"/>
				<path id="Fill-5" class="st1" d="M76.8-51.3c-0.2,0.2-0.6,0.4-1.2,0.4h-3.7V-53h3.7c0.7,0,1,0.2,1.2,0.4s0.3,0.5,0.3,0.7
					C77-51.6,76.8-51.4,76.8-51.3 M75.2-57.1c0.5,0,0.8,0.1,1.1,0.4c0.2,0.2,0.2,0.3,0.2,0.5s-0.1,0.5-0.2,0.6
					c-0.3,0.3-0.6,0.3-1.1,0.3h-3.3v-1.8 M78.3-54.6L78.3-54.6L78.3-54.6c0.9-0.6,1.5-1.4,1.5-2.2c0-0.5-0.2-1.1-0.6-1.5
					c-0.7-0.8-1.9-1.2-3.5-1.2h-7v10.9h7.2c1.8,0,2.7-0.3,3.5-1.1c0.7-0.7,1-1.5,1-2.3C80.3-53.1,79.7-54,78.3-54.6"/>
				<path id="Fill-7" class="st1" d="M95.2-55.1c-0.3,0.3-0.8,0.3-0.9,0.3h-3.5v-2.1h3.5c0.3,0,0.7,0.1,1,0.4
					c0.2,0.2,0.3,0.5,0.3,0.8C95.5-55.6,95.4-55.3,95.2-55.1 M97.8-58.1C97-59,95.7-59.4,94-59.4h-6.5v10.9h3.2v-3.8H94
					c1.6,0,2.8-0.4,3.7-1.2c0.6-0.6,1-1.5,1-2.3C98.7-56.7,98.4-57.5,97.8-58.1"/>
				<polygon id="Fill-9" class="st1" points="134.4,-54 134.4,-54 130.9,-59.5 128,-59.5 128,-48.5 131,-48.5 131,-53.7 
					131.2,-53.7 131.2,-53.7 133.8,-49.8 135,-49.8 137.5,-53.7 137.6,-53.7 137.6,-48.5 140.9,-48.5 140.9,-59.5 138,-59.5 
					134.5,-54 				"/>
				<g id="Clip-12">
				</g>
				<polygon id="Fill-11" class="st1" points="144.2,-48.5 147.5,-48.5 147.5,-59.5 144.2,-59.5 				"/>
				<path id="Fill-13" class="st1" d="M47.8-51v-8.5h-3.1v9.1c0,0-0.2,1.8,1.4,1.8h6.8v-2.5L47.8-51L47.8-51z"/>
				<path id="Fill-14" class="st1" d="M153.8-50.9v-1.9h5.8v-2.3h-5.8v-1.8h6.8v-2.6h-9.9v9.2c0,0,0,1.8,1.5,1.8h8.8v-2.4H153.8z"/>
				<path id="Fill-15" class="st1" d="M117.9-50.9v-1.9h5.8v-2.3h-5.8v-1.8h6.8v-2.6h-9.9v9.2c0,0,0,1.8,1.5,1.8h8.8v-2.4H117.9z"/>
				<path id="Fill-16" class="st1" d="M41.8-51.2c-1-0.9-2.6,0-2.6,0c-0.8,0.4-1.5,0.5-2.1,0.5c-2.1,0-3.7-1.4-3.7-3.3
					c0-1.9,1.5-3.3,3.6-3.3c0.7,0,1.5,0.2,2.4,0.6c0,0,1.2,0.7,2.1-0.5l0.8-0.8c-1.6-1.2-3.8-1.8-5.8-1.8c-3.5,0-6.3,2.5-6.3,5.8
					s2.7,5.8,6.4,5.8c2.9,0,5-1.3,6-2.1L41.8-51.2z"/>
				<path id="Fill-17" class="st1" d="M108.4-55.1c-0.2,0.2-0.5,0.3-0.9,0.3H104v-2.1h3.5c0.3,0,0.7,0.1,1,0.4
					c0.2,0.2,0.3,0.5,0.3,0.7C108.8-55.6,108.7-55.3,108.4-55.1L108.4-55.1z M110-52.9c1.3-0.7,2.1-1.7,2.1-3.1c0-0.9-0.4-1.7-1-2.3
					c-0.8-0.8-1.8-1.2-3.7-1.2h-6.5v11h3.3v-3.8h2.6l1.6,2.8c0,0,0.6,1,1.8,1h2.5L110-52.9z"/>
				<path id="Fill-18" class="st1" d="M171.5-55.1c-0.2,0.2-0.5,0.3-0.9,0.3h-3.5v-2.1h3.5c0.3,0,0.7,0.1,1,0.4
					c0.2,0.2,0.3,0.5,0.3,0.7C171.8-55.6,171.7-55.3,171.5-55.1L171.5-55.1z M172.9-52.9c1.3-0.7,2.1-1.7,2.1-3.1
					c0-0.9-0.4-1.7-1-2.3c-0.8-0.8-1.8-1.2-3.7-1.2h-6.5v11h3.3v-3.8h2.6l1.6,2.8c0,0,0.6,1,1.8,1h2.5L172.9-52.9z"/>
				<path id="Fill-19" class="st1" d="M201.6-56.2c-0.1-0.2-0.4-0.4-0.7-0.2c-0.1,0-1,0.7-1,0.7c-0.6-0.3-1.1-0.5-1.5-0.7
					c-0.2-0.1-0.5-0.2-0.8-0.2c-0.7,0-1.5,0.5-1.5,1.4c0,0.5,0,4.3,0,4.9c0,0.8,0.8,1.6,1.7,1.6h2.5c1.1,0,1.3-0.9,1.3-1.2
					c0-0.5,0-1.8,0-2.1c0-0.2,0-0.5,0.3-0.5c0.2,0,0.5-0.1,0.6-0.1c0.2-0.1,0.3-0.3,0.2-0.5C202.6-54.1,202-55.5,201.6-56.2"/>
				<path id="Fill-20" class="st1" d="M204.5-56.5c0-1.4-1-2.9-2.9-3.1c-1.5,0-2.5,0.5-2.8,0.7h-0.1c-0.3-0.3-0.9-0.7-1.6-0.9
					c-0.1,0-0.1-0.2,0-0.2c1.5-0.2,2.8,0,3.3,0.1c0.2,0,0.2-0.1,0.2-0.2c0-0.1-0.1-0.2-0.2-0.2c-0.2-0.3-0.5-0.6-0.9-0.7
					c-1.2-0.3-3.1-0.6-4.9-0.6c-2,0-4.1,0.4-4.6,0.5c-0.2,0-0.3,0.1-0.3,0.1c-0.2,0-0.2,0.2-0.1,0.2c0,0.1,0.2,0.2,0.2,0.2
					c0.1,0.1,0.1,0.2,0,0.3l-3.8,3.1h2.5l0,0c0.2,0,0.3,0.2,0.3,0.3s-0.2,0.3-0.3,0.3l0,0h-3.3l-1,0.9h4.3l0,0
					c0.2,0,0.3,0.2,0.3,0.3c0,0.2-0.2,0.3-0.3,0.3l0,0h-5.1l-1,0.9h8.7l0,0c0.2,0,0.3,0.2,0.3,0.3c0,0.2-0.2,0.3-0.3,0.3l0,0h-8.7
					v0.9h8.7l0,0c0.2,0,0.3,0.2,0.3,0.4s-0.2,0.3-0.3,0.3l0,0h-8.6v0.9h11.3l0,0c0.2,0,0.3,0.2,0.3,0.3c0,0.2-0.2,0.3-0.3,0.3l0,0
					h-8.1v0.9h8.1h0.2c0.2,0,0.3,0.2,0.3,0.3c0,0.2-0.2,0.3-0.3,0.3h-0.2h-8.1v0.9h9.5c0,0,0.4-0.8,0.4-1.7c0-0.1,0-6.1,0-6.1
					c0-0.5,0.2-1.3,1.2-1.5h0.1c2.8-0.7,5.7-0.1,7.4,0.6C204.4-56.2,204.5-56.4,204.5-56.5"/>
				<path id="Fill-21" class="st1" d="M188.6-44.5c0,0,1.2,0,1.9,0c1.7,0,2.8-0.9,2.8-0.9h-4.8v0.9H188.6z"/>
				<path id="Fill-22" class="st1" d="M188.6-46.1h5.5c0.2-0.2,0.6-0.7,0.7-0.9h-6.2V-46.1z"/>
				<path id="Fill-23" class="st1" d="M187.9-45v-0.2h0.1c0.1,0,0.1,0,0.1,0.1S187.9-45,187.9-45L187.9-45z M188.1-45.1
					c0-0.1-0.1-0.2-0.2-0.2h-0.2v0.5h0.1V-45h0.1l0.1,0.2h0.1L188.1-45.1C188-44.9,188.1-45,188.1-45.1L188.1-45.1z"/>
				<path id="Fill-24" class="st1" d="M187.9-44.7c-0.2,0-0.3-0.2-0.3-0.3s0.2-0.3,0.3-0.3c0.2,0,0.3,0.2,0.3,0.3
					C188.2-44.8,188.1-44.7,187.9-44.7 M187.9-45.3c-0.2,0-0.4,0.2-0.4,0.4s0.2,0.4,0.4,0.4s0.4-0.2,0.4-0.4
					C188.2-45.1,188.1-45.3,187.9-45.3"/>
			</g>
			<g class="st2">
				<path class="st3" d="M127.1,105.9c-1.5,1.8-3.5,3.1-6.2,4.1s-5.7,1.5-8.9,1.5c-3.5,0-6.4-0.8-9-2.2c-2.6-1.5-4.6-3.7-6-6.5
					s-2.1-6.2-2.1-10v-2.7c0-3.9,0.7-7.4,2-10.3s3.2-5.1,5.8-6.6c2.5-1.5,5.4-2.3,8.8-2.3c4.7,0,8.4,1.2,11,3.4s4.2,5.5,4.7,9.7
					h-7.9c-0.4-2.2-1.2-3.9-2.4-5c-1.2-1.1-2.9-1.6-5.1-1.6c-2.8,0-4.9,1.1-6.3,3.1c-1.5,2.1-2.1,5.1-2.2,9.3v2.5
					c0,4.1,0.8,7.3,2.4,9.4s3.9,3.1,6.9,3.1c3.1,0,5.2-0.6,6.5-1.9v-6.8h-7.4v-6h15.6C127.1,90,127.1,105.9,127.1,105.9z"/>
				<path class="st3" d="M156,102.7h-14.3l-2.7,8.1h-8.7L145,71.3h7.5l14.8,39.5h-8.6L156,102.7z M143.9,96.1h9.9l-5-14.8
					L143.9,96.1z"/>
				<path class="st3" d="M203.2,110.9h-8.1l-15.9-26v26h-8.1V71.4h8.1l15.9,26.1V71.4h8.1V110.9z"/>
				<path class="st3" d="M233.1,102.7h-14.3l-2.7,8.1h-8.7l14.7-39.5h7.5l14.8,39.5h-8.7L233.1,102.7z M221.1,96.1h9.9l-5-14.8
					L221.1,96.1z"/>
			</g>
			<g class="st2">
				<path class="st4" d="M163,213c-0.1,0.9-0.5,1.7-1.1,2.2s-1.4,0.8-2.4,0.8c-1.1,0-1.9-0.4-2.5-1.2s-0.9-1.8-0.9-3.1v-0.8
					c0-0.8,0.2-1.5,0.5-2.2c0.3-0.6,0.7-1.2,1.2-1.5s1.2-0.5,1.9-0.5c0.9,0,1.7,0.2,2.3,0.8c0.6,0.5,0.9,1.3,1,2.2h-1.3
					c-0.1-0.7-0.3-1.2-0.7-1.5c-0.3-0.3-0.8-0.5-1.5-0.5c-0.8,0-1.4,0.3-1.8,0.8c-0.5,0.5-0.6,1.4-0.6,2.4v0.8c0,1,0.2,1.8,0.6,2.3
					c0.4,0.5,1,0.8,1.7,0.8s1.2-0.2,1.5-0.5c0.4-0.3,0.6-0.8,0.7-1.5L163,213L163,213z"/>
				<path class="st4" d="M171.5,211.7c0,0.8-0.2,1.6-0.5,2.3s-0.7,1.2-1.2,1.5s-1.2,0.5-1.9,0.5s-1.3-0.2-1.8-0.5
					c-0.5-0.4-1-0.8-1.3-1.5c-0.3-0.6-0.5-1.4-0.5-2.2V211c0-0.8,0.2-1.6,0.5-2.3s0.7-1.2,1.3-1.5c0.5-0.4,1.2-0.5,1.9-0.5
					s1.4,0.2,1.9,0.5c0.5,0.4,1,0.8,1.2,1.5c0.3,0.7,0.5,1.5,0.5,2.3L171.5,211.7L171.5,211.7z M170.2,211.1c0-1.1-0.2-1.8-0.6-2.5
					c-0.5-0.5-1-0.8-1.8-0.8s-1.3,0.3-1.8,0.8s-0.6,1.4-0.7,2.4v0.7c0,1,0.2,1.8,0.6,2.5c0.5,0.6,1,0.9,1.8,0.9s1.4-0.3,1.8-0.8
					s0.6-1.4,0.6-2.4L170.2,211.1L170.2,211.1z"/>
				<path class="st4" d="M180.1,215.9h-1.2l-4.5-6.9v6.9h-1.2v-9h1.2l4.5,6.9v-6.9h1.2V215.9z"/>
			</g>
			<g id="Group-6" transform="translate(130.000000, 0.000000)">
				<path id="Fill-1_1_" class="st4" d="M51.6,13c1.1,0,1.9,0.8,1.9,1.9s-0.8,1.9-1.9,1.9s-1.9-0.8-1.9-1.9
					C49.7,13.9,50.5,13,51.6,13 M55,14.9c0-1.8-1.5-3.4-3.4-3.4s-3.4,1.5-3.4,3.4c0,0.5,0.1,1,0.3,1.4l-2.8-2.4
					c-0.5-0.4-1.2-0.3-1.5,0.2c-0.4,0.5-0.3,1.2,0.2,1.5l2.9,2.5L20.8,47.8c0,0-4.8,1.8-6.9-4.3c-0.5-1.2,1.6-0.5,1.6-0.5l-0.8-7.7
					l-5,5.6c0,0,1.3,0.6,1.5,1.6s0.2,6.6,4.7,10.1c0.5,0.4,0.4,4.1,0.4,4.1l0,0c0,0,3.7-0.8,4.1-0.3c4.3,3.8,9.8,2.9,10.8,2.9
					s1.8,1.2,1.8,1.2l4.6-5.9l-7.7,0.5c0,0,1.2,1.9-0.2,1.7c-6.4-1.1-5.4-6.1-5.4-6.1L49,19.4l-0.2-0.1l2.6,2.2
					c0.5,0.4,1.2,0.3,1.5-0.2c0.4-0.5,0.3-1.2-0.2-1.5l-2-1.6c0.3,0.1,0.5,0.2,0.8,0.2C53.4,18.3,55,16.9,55,14.9"/>
				<g id="Group-5_1_" transform="translate(18.000000, 0.000000)">
					<g id="Clip-4">
					</g>
					<path id="Fill-3_3_" class="st4" d="M6.7,14.7c0.2-1.1,1.2-1.7,2.2-1.5s1.7,1.2,1.5,2.2c-0.2,1.1-1.2,1.7-2.2,1.5
						C7.1,16.8,6.5,15.8,6.7,14.7 M9.2,11.8c-1.8-0.3-3.6,0.8-3.9,2.7c-0.3,1.8,0.8,3.6,2.6,3.9c0.5,0.1,1,0.1,1.4-0.1l-2.9,2.4
						c-0.5,0.4-0.5,1.1-0.2,1.5s1.1,0.5,1.5,0.2l3-2.5l24,31.5c0,0,0.9,5.1-5.4,6c-1.3,0.2-0.2-1.7-0.2-1.7L21.4,55l4.5,6
						c0,0,0.8-1.2,1.8-1.1c1,0,6.4,1,10.7-2.8c0.5-0.5,4,0.4,4.1,0.4l0,0c0,0-0.1-3.8,0.5-4.1c4.4-3.5,4.7-9.1,4.8-10
						c0.2-0.9,1.5-1.5,1.5-1.5l-4.9-5.7l-0.7,7.7c0,0,2.1-0.8,1.6,0.5c-2.2,6.1-6.9,4.2-6.9,4.2L12.5,18.5l-0.2,0.1l2.6-2.1
						c0.5-0.4,0.5-1.1,0.2-1.5c-0.4-0.5-1.1-0.5-1.5-0.2l-2.1,1.8c0.2-0.2,0.2-0.5,0.3-0.8C12.2,13.9,11,12.2,9.2,11.8"/>
				</g>
			</g>
			<g class="st2">
				<path class="st4" d="M78,184.1c-0.3,4.2-1.8,7.6-4.7,10c-2.8,2.5-6.6,3.7-11.2,3.7c-5.1,0-9-1.7-12-5.1c-2.9-3.4-4.4-8.1-4.4-14
					v-2.4c0-3.8,0.7-7.1,2-10s3.2-5.1,5.8-6.7c2.5-1.5,5.4-2.3,8.7-2.3c4.5,0,8.2,1.2,11,3.7c2.8,2.5,4.4,5.9,4.8,10.3h-8.2
					c-0.2-2.5-0.9-4.4-2.1-5.5c-1.2-1.2-3.1-1.7-5.6-1.7c-2.7,0-4.8,1-6.1,2.9c-1.4,1.9-2.1,5-2.1,9v3c0,4.3,0.6,7.4,1.9,9.4
					c1.3,2,3.3,3,6.1,3c2.5,0,4.4-0.5,5.6-1.7s1.9-2.9,2.1-5.4h8.2v-0.2H78z"/>
				<path class="st4" d="M97.9,182.8h-6.5v14.5h-8.1v-39.5h14.6c4.7,0,8.3,1.1,10.8,3.1c2.5,2.1,3.8,5,3.8,8.8
					c0,2.7-0.6,4.9-1.8,6.7c-1.2,1.8-2.9,3.2-5.3,4.3l8.5,16.2v0.4h-8.7L97.9,182.8z M91.4,176.2H98c2.1,0,3.6-0.5,4.8-1.5
					c1.2-1.1,1.7-2.5,1.7-4.3s-0.5-3.3-1.6-4.4c-1.1-1.1-2.7-1.6-4.9-1.6h-6.5C91.4,164.4,91.4,176.2,91.4,176.2z"/>
				<path class="st4" d="M148.7,157.8v26c0,4.3-1.4,7.7-4.1,10.3c-2.7,2.5-6.4,3.8-11.1,3.8c-4.6,0-8.3-1.2-11-3.7s-4.1-5.8-4.1-10
					v-26.3h8.1V184c0,2.6,0.6,4.4,1.8,5.7c1.2,1.2,3,1.8,5.1,1.8c4.6,0,6.9-2.4,7-7.2V158L148.7,157.8L148.7,157.8z"/>
				<path class="st4" d="M186.3,184.1c-0.3,4.2-1.8,7.6-4.7,10c-2.8,2.5-6.6,3.7-11.2,3.7c-5.1,0-9-1.7-12-5.1
					c-2.9-3.4-4.4-8.1-4.4-14v-2.4c0-3.8,0.7-7.1,2-10s3.2-5.1,5.8-6.7c2.5-1.5,5.4-2.3,8.7-2.3c4.5,0,8.2,1.2,11,3.7
					s4.4,5.9,4.8,10.3h-8.1c-0.2-2.5-0.9-4.4-2.1-5.5c-1.2-1.2-3.1-1.7-5.6-1.7c-2.7,0-4.8,1-6.1,2.9c-1.4,1.9-2.1,5-2.1,9v3
					c0,4.3,0.6,7.4,1.9,9.4c1.3,2,3.3,3,6.1,3c2.5,0,4.4-0.5,5.6-1.7s1.9-2.9,2.1-5.4h8.1v-0.2H186.3z"/>
				<path class="st4" d="M215.5,180.2h-15.6v10.6h18.3v6.5h-26.5v-39.5h26.5v6.6h-18.3v9.4h15.6V180.2z"/>
				<path class="st4" d="M237.6,182.8h-6.5v14.5H223v-39.5h14.6c4.7,0,8.3,1.1,10.8,3.1c2.5,2.1,3.8,5,3.8,8.8
					c0,2.7-0.6,4.9-1.8,6.7s-2.9,3.2-5.3,4.3l8.5,16.2v0.4h-8.7L237.6,182.8z M231.1,176.2h6.6c2.1,0,3.6-0.5,4.8-1.5
					s1.7-2.5,1.7-4.3s-0.5-3.3-1.6-4.4c-1.1-1.1-2.7-1.6-4.9-1.6h-6.5L231.1,176.2L231.1,176.2z"/>
				<path class="st4" d="M290.9,178.4c0,3.9-0.7,7.3-2.1,10.2s-3.4,5.2-5.9,6.7c-2.5,1.6-5.5,2.4-8.8,2.4s-6.2-0.8-8.7-2.4
					c-2.6-1.6-4.5-3.8-6-6.7c-1.4-2.9-2.1-6.3-2.1-10v-1.9c0-3.9,0.7-7.3,2.1-10.3s3.4-5.2,6-6.8c2.5-1.6,5.5-2.4,8.7-2.4
					c3.3,0,6.2,0.8,8.7,2.4c2.5,1.6,4.5,3.8,6,6.8c1.4,3,2.1,6.4,2.1,10.3L290.9,178.4L290.9,178.4z M282.6,176.7
					c0-4.1-0.8-7.3-2.2-9.4c-1.5-2.1-3.6-3.2-6.4-3.2s-4.8,1.1-6.3,3.2c-1.5,2.1-2.2,5.2-2.2,9.4v1.9c0,4.1,0.8,7.1,2.2,9.4
					c1.5,2.2,3.6,3.4,6.4,3.4s4.8-1.1,6.3-3.2c1.5-2.1,2.2-5.3,2.2-9.4V176.7L282.6,176.7z"/>
			</g>
			<g class="st2">
				<path class="st4" d="M127.2,129.3v9.7c0,0.9-0.2,1.8-0.6,2.5s-1,1.2-1.8,1.6s-1.6,0.5-2.6,0.5c-1.5,0-2.7-0.4-3.6-1.2
					s-1.4-1.9-1.4-3.4v-9.8h1.2v9.6c0,1.2,0.3,2.1,1,2.8s1.6,1,2.8,1c1.2,0,2.1-0.3,2.8-1c0.7-0.7,1-1.6,1-2.8v-9.7L127.2,129.3
					L127.2,129.3z"/>
				<path class="st4" d="M141.2,143.5H140l-8.2-12.2v12.2h-1.2v-14.2h1.2l8.2,12.2v-12.2h1.2V143.5z"/>
			</g>
			<g>
				<path class="st4" d="M154.5,141.7l0.1,0.3l0.1-0.3l4.4-12.4h1.3l-5.3,14.1H154l-5.3-14.1h1.3L154.5,141.7z"/>
				<path class="st4" d="M163.9,143.5h-1.2v-14.1h1.2V143.5z"/>
				<path class="st4" d="M175.5,139.5h-6.4l-1.5,4h-1.3l5.3-14.1h1.1l5.3,14.1h-1.2L175.5,139.5z M169.5,138.5h5.7l-2.8-7.7
					L169.5,138.5z"/>
				<path class="st4" d="M186.6,129.3h1.2v9.9c0,1.3-0.4,2.4-1.2,3.2s-1.8,1.2-3.1,1.2c-1.4,0-2.4-0.4-3.2-1.1
					c-0.7-0.7-1.1-1.7-1.1-3h1.2c0,1,0.3,1.8,0.8,2.3s1.3,0.8,2.3,0.8c0.9,0,1.6-0.3,2.2-0.9c0.6-0.6,0.9-1.4,0.9-2.4L186.6,129.3
					L186.6,129.3z"/>
				<path class="st4" d="M199.1,136.7h-6.6v5.8h7.6v1h-8.8v-14.1h8.7v1h-7.5v5.3h6.6V136.7z"/>
				<path class="st4" d="M215.2,136.7h-6.6v5.8h7.6v1h-8.8v-14.1h8.7v1h-7.5v5.3h6.6V136.7z"/>
				<path class="st4" d="M229.2,143.5H228l-8.1-12.1v12.1h-1.2v-14.1h1.2l8.1,12.1v-12.1h1.2V143.5z"/>
			</g>
			<g>
				<path class="st4" d="M170.2,250.1l2.5-4.8h1.4l-3.3,5.9v3.5h-1.2v-3.5l-3.3-5.9h1.4L170.2,250.1z"/>
			</g>
		</g>
	</g>
</g>
<image style="overflow:visible;enable-background:new    ;" width="705" height="346" xlink:href="../../../../Downloads/Cruceros.png"  transform="matrix(0.1455 0 0 0.1455 115.8946 256.8403)">
</image>
</svg>
